<svg width="146" height="62" viewBox="0 0 146 62" fill="none" xmlns="http://www.w3.org/2000/svg">
<g filter="url(#filter0_i_1425_19732)">
<g filter="url(#filter1_i_1425_19732)">
<path fill-rule="evenodd" clip-rule="evenodd" d="M85.2415 0V32.8362L84.3727 32.0235C81.8785 29.6902 78.932 28.4746 75.3466 28.2993C70.9513 28.0846 66.961 29.6459 63.9425 32.7617C60.749 36.058 59.2337 39.8679 59.2266 44.6199C59.2196 49.1996 60.7181 53.0679 63.7385 56.2674C67.0147 59.7378 71.5443 61.4734 76.099 61.0035C79.3167 60.6714 82.0006 59.5852 84.2404 57.7087L85.1766 56.9242V61.0035H91.6026V0H85.2415ZM77.7478 34.8659C80.8262 35.9562 83.0856 38.4945 83.9457 41.8288C85.6215 48.3263 81.2557 54.8709 75.2456 54.8709C72.0514 54.8709 69.0895 52.9473 67.4721 49.8223C64.4102 43.9064 67.2718 36.3516 73.1804 34.7516C74.4388 34.4109 76.6171 34.4654 77.7478 34.8659Z" fill="white"/>
</g>
<g filter="url(#filter2_i_1425_19732)">
<g filter="url(#filter3_i_1425_19732)">
<path d="M0 0.179688L0 61.013H6.36015V51.2167C6.3608 46.2329 6.41725 41.9511 6.49122 41.2891C6.98152 36.8988 9.21305 34.4981 12.804 34.4981C15.9166 34.4981 17.9387 36.0884 18.7833 39.2003C18.9736 39.902 19.0043 41.1626 19.0435 49.9231V61.013H25.4967V38.4433L25.1522 37.1925C23.5159 31.2504 19.4857 28.0194 13.6916 28.0041C11.2898 27.9979 8.9631 28.6858 7.06264 29.9643C6.73988 30.1813 6.44957 30.3589 6.41751 30.3589C6.38533 30.3589 6.35911 27.3561 6.35911 1.17551V0.179688H0Z" fill="white"/>
<path d="M139.665 0.248171V60.8341H146V0.248171H139.665Z" fill="white"/>
<path d="M29.1061 29.2382C29.0686 29.3357 29.059 34.008 29.0848 39.6209C29.1301 49.4548 29.1418 49.8698 29.4061 51.025C29.7911 52.7066 30.0326 53.4029 30.7063 54.773C32.6873 58.8014 36.332 61.0128 40.9905 61.013C43.1421 61.0131 45.2087 60.3454 47.1225 59.0312L47.9985 58.4297L48.1261 61.013H54.6172V29.0655H48.1283L48.1261 37.8937C48.1248 42.7492 48.0677 47.2457 47.9991 47.8859C47.5731 51.8667 45.8862 54.002 42.8153 54.4482C39.5828 54.9179 37.1598 53.3114 36.0391 49.9556L35.7733 48.976L35.6047 29.1302L32.3895 29.0955C29.7625 29.0673 29.1618 29.0935 29.1061 29.2382Z" fill="white"/>
</g>
</g>
<g filter="url(#filter4_i_1425_19732)">
<path fill-rule="evenodd" clip-rule="evenodd" d="M94.0312 0.121094V61.0124H100.429V56.9843L101.361 57.7705C103.591 59.651 106.263 60.7395 109.466 61.0723C114 61.5433 118.51 59.8039 121.771 56.3261C124.778 53.1197 126.27 49.2431 126.263 44.6537C126.256 39.8915 124.748 36.0735 121.568 32.7701C118.563 29.6477 114.591 28.083 110.215 28.2982C106.646 28.4739 103.712 29.6921 101.229 32.0304L100.364 32.8448V0.121094H94.0312ZM107.824 34.8788C104.76 35.9715 102.51 38.5152 101.654 41.8566C99.9858 48.368 104.332 54.9266 110.316 54.9266C113.496 54.9266 116.444 52.9989 118.054 49.8672C121.103 43.9387 118.254 36.3678 112.372 34.7643C111.119 34.4228 108.95 34.4775 107.824 34.8788Z" fill="white"/>
</g>
<g filter="url(#filter5_i_1425_19732)">
<path d="M129.852 60.8344V28.9141H136.213L136.34 60.8344H129.852Z" fill="white"/>
</g>
<g filter="url(#filter6_i_1425_19732)">
<circle cx="132.791" cy="21.232" r="2.93903" fill="white"/>
</g>
<g filter="url(#filter7_i_1425_19732)">
<path fill-rule="evenodd" clip-rule="evenodd" d="M91.6024 0.179688H85.2413V32.8366L84.3724 32.0239C81.8782 29.6906 78.9318 28.475 75.3463 28.2997C70.9511 28.085 66.9608 29.6463 63.9422 32.7621C60.764 36.0427 59.248 39.8319 59.2266 44.5522H66.2306C66.2841 40.0913 68.952 35.897 73.1802 34.7521C74.4385 34.4113 76.6169 34.4658 77.7476 34.8663C80.8259 35.9566 83.0854 38.4949 83.9455 41.8292C84.1809 42.742 84.2971 43.6558 84.3062 44.5522H91.6024V0.179688Z" fill="white"/>
</g>
</g>
<defs>
<filter id="filter0_i_1425_19732" x="0" y="0" width="146" height="65.1484" filterUnits="userSpaceOnUse" color-interpolation-filters="sRGB">
<feFlood flood-opacity="0" result="BackgroundImageFix"/>
<feBlend mode="normal" in="SourceGraphic" in2="BackgroundImageFix" result="shape"/>
<feColorMatrix in="SourceAlpha" type="matrix" values="0 0 0 0 0 0 0 0 0 0 0 0 0 0 0 0 0 0 127 0" result="hardAlpha"/>
<feOffset dy="4"/>
<feGaussianBlur stdDeviation="2"/>
<feComposite in2="hardAlpha" operator="arithmetic" k2="-1" k3="1"/>
<feColorMatrix type="matrix" values="0 0 0 0 0 0 0 0 0 0 0 0 0 0 0 0 0 0 0.25 0"/>
<feBlend mode="normal" in2="shape" result="effect1_innerShadow_1425_19732"/>
</filter>
<filter id="filter1_i_1425_19732" x="59.2266" y="0" width="34.375" height="63.0781" filterUnits="userSpaceOnUse" color-interpolation-filters="sRGB">
<feFlood flood-opacity="0" result="BackgroundImageFix"/>
<feBlend mode="normal" in="SourceGraphic" in2="BackgroundImageFix" result="shape"/>
<feColorMatrix in="SourceAlpha" type="matrix" values="0 0 0 0 0 0 0 0 0 0 0 0 0 0 0 0 0 0 127 0" result="hardAlpha"/>
<feOffset dx="2" dy="2"/>
<feGaussianBlur stdDeviation="2.00713"/>
<feComposite in2="hardAlpha" operator="arithmetic" k2="-1" k3="1"/>
<feColorMatrix type="matrix" values="0 0 0 0 0.996078 0 0 0 0 0.447059 0 0 0 0 0.447059 0 0 0 0.2 0"/>
<feBlend mode="normal" in2="shape" result="effect1_innerShadow_1425_19732"/>
</filter>
<filter id="filter2_i_1425_19732" x="0" y="0.179688" width="146" height="64.832" filterUnits="userSpaceOnUse" color-interpolation-filters="sRGB">
<feFlood flood-opacity="0" result="BackgroundImageFix"/>
<feBlend mode="normal" in="SourceGraphic" in2="BackgroundImageFix" result="shape"/>
<feColorMatrix in="SourceAlpha" type="matrix" values="0 0 0 0 0 0 0 0 0 0 0 0 0 0 0 0 0 0 127 0" result="hardAlpha"/>
<feOffset dy="4"/>
<feGaussianBlur stdDeviation="2"/>
<feComposite in2="hardAlpha" operator="arithmetic" k2="-1" k3="1"/>
<feColorMatrix type="matrix" values="0 0 0 0 0.968627 0 0 0 0 0.454902 0 0 0 0 0 0 0 0 0.2 0"/>
<feBlend mode="normal" in2="shape" result="effect1_innerShadow_1425_19732"/>
</filter>
<filter id="filter3_i_1425_19732" x="0" y="0.179688" width="146" height="64.8463" filterUnits="userSpaceOnUse" color-interpolation-filters="sRGB">
<feFlood flood-opacity="0" result="BackgroundImageFix"/>
<feBlend mode="normal" in="SourceGraphic" in2="BackgroundImageFix" result="shape"/>
<feColorMatrix in="SourceAlpha" type="matrix" values="0 0 0 0 0 0 0 0 0 0 0 0 0 0 0 0 0 0 127 0" result="hardAlpha"/>
<feOffset dy="4.01427"/>
<feGaussianBlur stdDeviation="2.00713"/>
<feComposite in2="hardAlpha" operator="arithmetic" k2="-1" k3="1"/>
<feColorMatrix type="matrix" values="0 0 0 0 1 0 0 0 0 1 0 0 0 0 1 0 0 0 0.3 0"/>
<feBlend mode="normal" in2="shape" result="effect1_innerShadow_1425_19732"/>
</filter>
<filter id="filter4_i_1425_19732" x="94.0312" y="0.121094" width="32.2344" height="65.0416" filterUnits="userSpaceOnUse" color-interpolation-filters="sRGB">
<feFlood flood-opacity="0" result="BackgroundImageFix"/>
<feBlend mode="normal" in="SourceGraphic" in2="BackgroundImageFix" result="shape"/>
<feColorMatrix in="SourceAlpha" type="matrix" values="0 0 0 0 0 0 0 0 0 0 0 0 0 0 0 0 0 0 127 0" result="hardAlpha"/>
<feOffset dy="4.01427"/>
<feGaussianBlur stdDeviation="2.00713"/>
<feComposite in2="hardAlpha" operator="arithmetic" k2="-1" k3="1"/>
<feColorMatrix type="matrix" values="0 0 0 0 0.996078 0 0 0 0 0.447059 0 0 0 0 0.447059 0 0 0 0.2 0"/>
<feBlend mode="normal" in2="shape" result="effect1_innerShadow_1425_19732"/>
</filter>
<filter id="filter5_i_1425_19732" x="129.852" y="28.9141" width="6.49219" height="35.9361" filterUnits="userSpaceOnUse" color-interpolation-filters="sRGB">
<feFlood flood-opacity="0" result="BackgroundImageFix"/>
<feBlend mode="normal" in="SourceGraphic" in2="BackgroundImageFix" result="shape"/>
<feColorMatrix in="SourceAlpha" type="matrix" values="0 0 0 0 0 0 0 0 0 0 0 0 0 0 0 0 0 0 127 0" result="hardAlpha"/>
<feOffset dy="4.01427"/>
<feGaussianBlur stdDeviation="2.00713"/>
<feComposite in2="hardAlpha" operator="arithmetic" k2="-1" k3="1"/>
<feColorMatrix type="matrix" values="0 0 0 0 0.996078 0 0 0 0 0.447059 0 0 0 0 0.447059 0 0 0 0.2 0"/>
<feBlend mode="normal" in2="shape" result="effect1_innerShadow_1425_19732"/>
</filter>
<filter id="filter6_i_1425_19732" x="129.852" y="18.293" width="5.875" height="9.89317" filterUnits="userSpaceOnUse" color-interpolation-filters="sRGB">
<feFlood flood-opacity="0" result="BackgroundImageFix"/>
<feBlend mode="normal" in="SourceGraphic" in2="BackgroundImageFix" result="shape"/>
<feColorMatrix in="SourceAlpha" type="matrix" values="0 0 0 0 0 0 0 0 0 0 0 0 0 0 0 0 0 0 127 0" result="hardAlpha"/>
<feOffset dy="4.01427"/>
<feGaussianBlur stdDeviation="2.00713"/>
<feComposite in2="hardAlpha" operator="arithmetic" k2="-1" k3="1"/>
<feColorMatrix type="matrix" values="0 0 0 0 0 0 0 0 0 0 0 0 0 0 0 0 0 0 0.25 0"/>
<feBlend mode="normal" in2="shape" result="effect1_innerShadow_1425_19732"/>
</filter>
<filter id="filter7_i_1425_19732" x="59.2266" y="0.179688" width="34.375" height="46.3711" filterUnits="userSpaceOnUse" color-interpolation-filters="sRGB">
<feFlood flood-opacity="0" result="BackgroundImageFix"/>
<feBlend mode="normal" in="SourceGraphic" in2="BackgroundImageFix" result="shape"/>
<feColorMatrix in="SourceAlpha" type="matrix" values="0 0 0 0 0 0 0 0 0 0 0 0 0 0 0 0 0 0 127 0" result="hardAlpha"/>
<feOffset dx="2" dy="2"/>
<feGaussianBlur stdDeviation="2.00713"/>
<feComposite in2="hardAlpha" operator="arithmetic" k2="-1" k3="1"/>
<feColorMatrix type="matrix" values="0 0 0 0 0.968627 0 0 0 0 0.454902 0 0 0 0 0 0 0 0 0.2 0"/>
<feBlend mode="normal" in2="shape" result="effect1_innerShadow_1425_19732"/>
</filter>
</defs>
</svg>
