<svg width="105" height="56" viewBox="0 0 105 56" fill="none" xmlns="http://www.w3.org/2000/svg">
<path d="M41.7969 0.1875H45.5212V27.1887H41.7969V0.1875Z" fill="#DF2323"/>
<path d="M39 0.1875H40.8622V27.1887H39V0.1875Z" fill="#EA496D"/>
<path d="M64.1328 0.1875H65.995V27.1887H64.1328V0.1875Z" fill="#EA496D"/>
<path d="M58.5547 0.1875H63.0386L63.2102 27.1887H58.5547V0.1875Z" fill="#DF2323"/>
<path d="M46.4453 0.1875H57.6184V27.1887H46.4453V0.1875Z" fill="#EA496D"/>
<path d="M1.4 53.1875V38.7875H2.87V45.5875L9.44 38.7875H11.32L4.61 45.7375L11.87 53.1875H9.95L2.87 45.9875V53.1875H1.4ZM12.275 53.1875L17.235 38.7875H19.185L24.145 53.1875H22.615L17.905 39.6075H18.485L13.805 53.1875H12.275ZM14.485 49.6975V48.3175H21.925V49.6975H14.485ZM26.1508 53.1875V38.7875H27.6208V51.7775H34.4608V53.1875H26.1508ZM35.1656 53.1875L40.1256 38.7875H42.0756L47.0356 53.1875H45.5056L40.7956 39.6075H41.3756L36.6956 53.1875H35.1656ZM37.3756 49.6975V48.3175H44.8156V49.6975H37.3756ZM54.2808 53.4875C52.8474 53.4875 51.6374 53.1708 50.6508 52.5375C49.6641 51.8975 48.9174 51.0142 48.4108 49.8875C47.9041 48.7608 47.6508 47.4608 47.6508 45.9875C47.6508 44.5142 47.9041 43.2142 48.4108 42.0875C48.9174 40.9608 49.6641 40.0808 50.6508 39.4475C51.6374 38.8075 52.8474 38.4875 54.2808 38.4875C55.9541 38.4875 57.3208 38.9175 58.3808 39.7775C59.4408 40.6308 60.1674 41.7775 60.5608 43.2175L59.0608 43.6075C58.7541 42.4675 58.2041 41.5642 57.4108 40.8975C56.6174 40.2308 55.5741 39.8975 54.2808 39.8975C53.1541 39.8975 52.2174 40.1542 51.4708 40.6675C50.7241 41.1808 50.1608 41.8975 49.7808 42.8175C49.4074 43.7308 49.2141 44.7875 49.2008 45.9875C49.1941 47.1875 49.3774 48.2442 49.7508 49.1575C50.1308 50.0708 50.6974 50.7875 51.4508 51.3075C52.2108 51.8208 53.1541 52.0775 54.2808 52.0775C55.5741 52.0775 56.6174 51.7442 57.4108 51.0775C58.2041 50.4042 58.7541 49.5008 59.0608 48.3675L60.5608 48.7575C60.1674 50.1975 59.4408 51.3475 58.3808 52.2075C57.3208 53.0608 55.9541 53.4875 54.2808 53.4875ZM68.5972 53.4875C67.1639 53.4875 65.9539 53.1708 64.9672 52.5375C63.9805 51.8975 63.2339 51.0142 62.7272 49.8875C62.2205 48.7608 61.9672 47.4608 61.9672 45.9875C61.9672 44.5142 62.2205 43.2142 62.7272 42.0875C63.2339 40.9608 63.9805 40.0808 64.9672 39.4475C65.9539 38.8075 67.1639 38.4875 68.5972 38.4875C70.0372 38.4875 71.2472 38.8075 72.2272 39.4475C73.2139 40.0808 73.9605 40.9608 74.4672 42.0875C74.9805 43.2142 75.2372 44.5142 75.2372 45.9875C75.2372 47.4608 74.9805 48.7608 74.4672 49.8875C73.9605 51.0142 73.2139 51.8975 72.2272 52.5375C71.2472 53.1708 70.0372 53.4875 68.5972 53.4875ZM68.5972 52.0775C69.7239 52.0775 70.6639 51.8208 71.4172 51.3075C72.1705 50.7942 72.7339 50.0808 73.1072 49.1675C73.4872 48.2475 73.6772 47.1875 73.6772 45.9875C73.6772 44.7875 73.4872 43.7308 73.1072 42.8175C72.7339 41.9042 72.1705 41.1908 71.4172 40.6775C70.6639 40.1642 69.7239 39.9042 68.5972 39.8975C67.4705 39.8975 66.5339 40.1542 65.7872 40.6675C65.0405 41.1808 64.4772 41.8975 64.0972 42.8175C63.7239 43.7308 63.5339 44.7875 63.5272 45.9875C63.5205 47.1875 63.7039 48.2442 64.0772 49.1575C64.4572 50.0642 65.0239 50.7775 65.7772 51.2975C66.5305 51.8108 67.4705 52.0708 68.5972 52.0775ZM77.2398 53.1875V38.7875H81.6098C81.7632 38.7875 82.0232 38.7908 82.3898 38.7975C82.7632 38.8042 83.1198 38.8308 83.4598 38.8775C84.5532 39.0308 85.4665 39.4375 86.1998 40.0975C86.9332 40.7575 87.4832 41.5975 87.8498 42.6175C88.2165 43.6375 88.3998 44.7608 88.3998 45.9875C88.3998 47.2142 88.2165 48.3375 87.8498 49.3575C87.4832 50.3775 86.9332 51.2175 86.1998 51.8775C85.4665 52.5375 84.5532 52.9442 83.4598 53.0975C83.1265 53.1375 82.7698 53.1642 82.3898 53.1775C82.0098 53.1842 81.7498 53.1875 81.6098 53.1875H77.2398ZM78.7598 51.7775H81.6098C81.8832 51.7775 82.1765 51.7708 82.4898 51.7575C82.8098 51.7375 83.0832 51.7042 83.3098 51.6575C84.1498 51.5108 84.8265 51.1708 85.3398 50.6375C85.8598 50.1042 86.2398 49.4375 86.4798 48.6375C86.7198 47.8308 86.8398 46.9475 86.8398 45.9875C86.8398 45.0208 86.7198 44.1342 86.4798 43.3275C86.2398 42.5208 85.8598 41.8542 85.3398 41.3275C84.8198 40.8008 84.1432 40.4642 83.3098 40.3175C83.0832 40.2708 82.8065 40.2408 82.4798 40.2275C82.1598 40.2075 81.8698 40.1975 81.6098 40.1975H78.7598V51.7775ZM90.6773 53.1875V38.7875H99.6773V40.1975H92.1473V45.1775H98.4773V46.5875H92.1473V51.7775H99.6773V53.1875H90.6773Z" fill="white"/>
</svg>
