<svg width="85" height="58" viewBox="0 0 85 58" fill="none" xmlns="http://www.w3.org/2000/svg">
<path fill-rule="evenodd" clip-rule="evenodd" d="M48.4929 5.45429C42.8126 8.51796 40.0007 4.91531 34.5828 10.1916C32.8118 11.8806 32.1559 14.1849 31.8935 16.6725C31.7229 18.872 31.8935 23.4151 31.9722 25.6409C32.287 25.1695 32.1558 24.5804 32.5888 24.1352C32.9823 22.1059 35.5798 20.0111 37.5213 19.3957C39.4104 18.7935 44.1724 18.3876 45.1169 20.2729C45.5367 19.8278 46.1664 20.0373 46.8223 19.291C47.4914 18.5316 47.8062 17.3402 48.0686 17.0652C46.1533 17.2616 45.6417 17.9032 43.6083 16.751C41.9029 15.7953 41.916 15.1013 41.0764 13.6612C40.3452 15.0665 39.4205 15.8314 37.1225 15.5334C37.0438 14.3158 38.1117 13.1375 39.148 12.6007C40.6042 11.8413 41.6274 12.4174 43.0311 12.7578C45.2875 13.2946 49.2624 12.8101 50.6136 10.8593C51.0728 10.244 51.873 8.68597 51.8992 7.95278C51.2171 8.20154 50.2856 9.48462 48.6721 9.78575C49.7478 8.69906 51.2958 7.87423 51.5581 6.00199C50.3643 6.77445 50.1676 7.42908 48.4359 7.82186C49.0787 7.31125 50.5218 6.00199 50.6136 5.16406C50.4037 5.22953 48.9914 5.93087 48.4929 6.15344C47.8108 6.46766 46.8053 7.04133 46.0831 7.24411C46.8053 6.9015 47.837 6.37078 48.4929 5.45429Z" fill="url(#paint0_linear_3836_151)"/>
<path fill-rule="evenodd" clip-rule="evenodd" d="M48.2602 5.64911C47.0017 6.69538 46.8892 6.71181 45.6562 7.43892C46.637 7.29909 47.55 6.8023 48.2322 6.48808C48.7307 6.26551 50.0249 5.51881 50.2217 5.45334C50.1299 6.29127 49.1569 7.37113 47.9747 8.02576C50.0256 7.52282 50.0751 7.13383 51.1744 6.32029C50.9121 8.20562 48.7366 9.64822 48.2108 9.98965C49.8244 9.68852 50.8102 8.69738 51.5387 8.22196C51.5125 8.95515 50.7369 10.64 50.2778 11.2423C53.4 8.47974 54.206 3.58737 51.6872 0C51.2543 1.36163 51.005 2.121 50.1917 3.33861C49.8244 3.90159 49.0728 4.94996 48.2602 5.64911Z" fill="url(#paint1_linear_3836_151)"/>
<path d="M34.169 28.5411C34.6409 28.5411 35.197 29.1319 35.1129 29.998H31.8456C31.8456 29.998 31.7547 18.1493 31.9174 16.3818C32.0801 14.6143 32.8006 11.8649 34.2082 10.6211C33.5521 16.2795 39.0507 16.3042 41.2188 13.436C43.0658 16.8998 44.7307 17.6445 48.3106 16.9055C47.0129 20.958 43.0861 21.226 42.8604 21.226C42.6347 21.226 35.8571 19.7479 34.287 25.5465L34.169 28.5411Z" fill="#F22929"/>
<mask id="mask0_3836_151" style="mask-type:alpha" maskUnits="userSpaceOnUse" x="31" y="10" width="18" height="20">
<path d="M34.169 28.5411C34.6409 28.5411 35.197 29.1319 35.1129 29.998H31.8456C31.8456 29.998 31.7547 18.1493 31.9174 16.3818C32.0801 14.6143 32.8006 11.8649 34.2082 10.6211C33.5521 16.2795 39.0507 16.3042 41.2188 13.436C43.0658 16.8998 44.7307 17.6445 48.3106 16.9055C47.0129 20.958 43.0861 21.226 42.8604 21.226C42.6347 21.226 35.8571 19.7479 34.287 25.5465L34.169 28.5411Z" fill="#DF2323"/>
</mask>
<g mask="url(#mask0_3836_151)">
<path d="M30.4844 26.1796C30.4844 21.9894 34.9736 18.5859 39.8641 18.5859C44.7546 18.5859 48.7191 21.9827 48.7191 26.1729V26.71C48.7191 30.9001 44.7546 34.8367 39.8641 34.8367C34.9736 34.8367 30.6156 32.1372 30.6156 27.9471L30.4844 26.1796Z" fill="url(#paint2_linear_3836_151)"/>
</g>
<path d="M7.23 55.3C5.79667 55.3 4.58667 54.9833 3.6 54.35C2.61333 53.71 1.86667 52.8267 1.36 51.7C0.853333 50.5733 0.6 49.2733 0.6 47.8C0.6 46.3267 0.853333 45.0267 1.36 43.9C1.86667 42.7733 2.61333 41.8933 3.6 41.26C4.58667 40.62 5.79667 40.3 7.23 40.3C8.90333 40.3 10.27 40.73 11.33 41.59C12.39 42.4433 13.1167 43.59 13.51 45.03L12.01 45.42C11.7033 44.28 11.1533 43.3767 10.36 42.71C9.56667 42.0433 8.52333 41.71 7.23 41.71C6.10333 41.71 5.16667 41.9667 4.42 42.48C3.67333 42.9933 3.11 43.71 2.73 44.63C2.35667 45.5433 2.16333 46.6 2.15 47.8C2.14333 49 2.32667 50.0567 2.7 50.97C3.08 51.8833 3.64667 52.6 4.4 53.12C5.16 53.6333 6.10333 53.89 7.23 53.89C8.52333 53.89 9.56667 53.5567 10.36 52.89C11.1533 52.2167 11.7033 51.3133 12.01 50.18L13.51 50.57C13.1167 52.01 12.39 53.16 11.33 54.02C10.27 54.8733 8.90333 55.3 7.23 55.3ZM21.5464 55.3C20.1131 55.3 18.9031 54.9833 17.9164 54.35C16.9297 53.71 16.1831 52.8267 15.6764 51.7C15.1697 50.5733 14.9164 49.2733 14.9164 47.8C14.9164 46.3267 15.1697 45.0267 15.6764 43.9C16.1831 42.7733 16.9297 41.8933 17.9164 41.26C18.9031 40.62 20.1131 40.3 21.5464 40.3C22.9864 40.3 24.1964 40.62 25.1764 41.26C26.1631 41.8933 26.9097 42.7733 27.4164 43.9C27.9297 45.0267 28.1864 46.3267 28.1864 47.8C28.1864 49.2733 27.9297 50.5733 27.4164 51.7C26.9097 52.8267 26.1631 53.71 25.1764 54.35C24.1964 54.9833 22.9864 55.3 21.5464 55.3ZM21.5464 53.89C22.6731 53.89 23.6131 53.6333 24.3664 53.12C25.1197 52.6067 25.6831 51.8933 26.0564 50.98C26.4364 50.06 26.6264 49 26.6264 47.8C26.6264 46.6 26.4364 45.5433 26.0564 44.63C25.6831 43.7167 25.1197 43.0033 24.3664 42.49C23.6131 41.9767 22.6731 41.7167 21.5464 41.71C20.4197 41.71 19.4831 41.9667 18.7364 42.48C17.9897 42.9933 17.4264 43.71 17.0464 44.63C16.6731 45.5433 16.4831 46.6 16.4764 47.8C16.4697 49 16.6531 50.0567 17.0264 50.97C17.4064 51.8767 17.9731 52.59 18.7264 53.11C19.4797 53.6233 20.4197 53.8833 21.5464 53.89ZM30.3891 55V40.6H31.8591V53.59H38.6991V55H30.3891ZM42.2417 55V42.01H37.2117V40.6H48.7417V42.01H43.7117V55H42.2417ZM50.3453 55V40.6H58.6153V42.07H51.8153V47.07H57.4153V48.53H51.8153V55H50.3453ZM66.2534 55.3C64.8201 55.3 63.6101 54.9833 62.6234 54.35C61.6368 53.71 60.8901 52.8267 60.3834 51.7C59.8768 50.5733 59.6234 49.2733 59.6234 47.8C59.6234 46.3267 59.8768 45.0267 60.3834 43.9C60.8901 42.7733 61.6368 41.8933 62.6234 41.26C63.6101 40.62 64.8201 40.3 66.2534 40.3C67.6934 40.3 68.9034 40.62 69.8834 41.26C70.8701 41.8933 71.6168 42.7733 72.1234 43.9C72.6368 45.0267 72.8934 46.3267 72.8934 47.8C72.8934 49.2733 72.6368 50.5733 72.1234 51.7C71.6168 52.8267 70.8701 53.71 69.8834 54.35C68.9034 54.9833 67.6934 55.3 66.2534 55.3ZM66.2534 53.89C67.3801 53.89 68.3201 53.6333 69.0734 53.12C69.8268 52.6067 70.3901 51.8933 70.7634 50.98C71.1434 50.06 71.3334 49 71.3334 47.8C71.3334 46.6 71.1434 45.5433 70.7634 44.63C70.3901 43.7167 69.8268 43.0033 69.0734 42.49C68.3201 41.9767 67.3801 41.7167 66.2534 41.71C65.1268 41.71 64.1901 41.9667 63.4434 42.48C62.6968 42.9933 62.1334 43.71 61.7534 44.63C61.3801 45.5433 61.1901 46.6 61.1834 47.8C61.1768 49 61.3601 50.0567 61.7334 50.97C62.1134 51.8767 62.6801 52.59 63.4334 53.11C64.1868 53.6233 65.1268 53.8833 66.2534 53.89ZM72.7 55L77.69 47.71L72.83 40.6H74.61L78.56 46.48L82.51 40.6H84.3L79.44 47.71L84.42 55H82.64L78.56 48.95L74.49 55H72.7Z" fill="white"/>
<defs>
<linearGradient id="paint0_linear_3836_151" x1="46.7609" y1="9.14079" x2="35.1145" y2="14.0705" gradientUnits="userSpaceOnUse">
<stop stop-color="#FCAB64"/>
<stop offset="0.755208" stop-color="#FD504F"/>
</linearGradient>
<linearGradient id="paint1_linear_3836_151" x1="52.5162" y1="1.04741" x2="49.3129" y2="8.64565" gradientUnits="userSpaceOnUse">
<stop stop-color="#FCC391"/>
<stop offset="1" stop-color="#1F1F21"/>
</linearGradient>
<linearGradient id="paint2_linear_3836_151" x1="38.3752" y1="19.7273" x2="33.4581" y2="29.9139" gradientUnits="userSpaceOnUse">
<stop stop-color="#1F1F21"/>
<stop offset="1" stop-color="#FCC391"/>
</linearGradient>
</defs>
</svg>
