<svg width="351" height="87" viewBox="0 0 351 87" fill="none" xmlns="http://www.w3.org/2000/svg">
<rect opacity="0.5" y="42.5898" width="50" height="1.9375" fill="white"/>
<g filter="url(#filter0_i_3876_493)">
<rect x="78.625" y="1.22852" width="3.28433" height="59.3094" fill="#EA496D"/>
<path d="M192.789 1H196.073V60.5357H192.789V1Z" fill="#EA496D"/>
<path d="M209.445 1H213.049V55.2819H209.445V1Z" fill="#EA496D"/>
<path d="M173.402 1H177.006V56.117H173.402V1Z" fill="#EA496D"/>
<rect x="118.438" y="1" width="2.70301" height="58.4575" fill="#EA496D"/>
<path d="M170.367 1H172.009V60.5354H170.367V1Z" fill="#EA496D"/>
<rect x="225.66" y="1" width="1.80201" height="55.9522" fill="#EA496D"/>
<path d="M298.641 1H300.02V54.3993H298.641V1Z" fill="#EA496D"/>
<path d="M334.883 1.00195H336.262V54.401H334.883V1.00195Z" fill="#EA496D"/>
<path d="M344.887 1.00195H347.616L347.646 58.8324H344.887V1.00195Z" fill="#EA496D"/>
<path d="M205.891 1.00195H207.533V60.5367H205.891V1.00195Z" fill="#EA496D"/>
<path d="M280.621 1H282.263V60.5348H280.621V1Z" fill="#EA496D"/>
<path d="M242.777 1H244.42V60.5348H242.777V1Z" fill="#EA496D"/>
<path d="M229.266 1H233.605L233.771 56.9522H229.266V1Z" fill="#EA496D"/>
<rect x="96.8203" y="1" width="1.80201" height="56.7873" fill="#EA496D"/>
<path d="M320.398 1H322.041V60.535H320.398V1Z" fill="#EA496D"/>
<path d="M216.246 1.00195H227.466V54.401H216.246V1.00195Z" fill="#EA496D"/>
<path d="M252.691 1.00195H263.912V54.401H252.691V1.00195Z" fill="#EA496D"/>
<path d="M285.17 1.00195H296.39V54.401H285.17V1.00195Z" fill="#EA496D"/>
<path d="M265.754 1H269.183V60.535H265.898L265.754 1Z" fill="#EA496D"/>
<path d="M246.93 1H250.435L250.379 53.7177L247.282 55.2819L246.93 1Z" fill="#EA496D"/>
<rect x="338.289" y="1" width="3.60401" height="54.2819" fill="#EA496D"/>
<rect x="324.77" y="1" width="8.10903" height="53.4468" fill="#EA496D"/>
<path d="M179.684 1H190.337L190.375 57.1263H179.684V1Z" fill="#EA496D"/>
<rect x="123.848" y="1" width="12.614" height="52.6117" fill="#EA496D"/>
<rect x="140.969" y="1" width="2.70301" height="55.117" fill="#EA496D"/>
<rect x="138.266" y="1" width="1.80201" height="54.2819" fill="#EA496D"/>
<path d="M95.0156 1H95.9166V54.0301L95.0156 56.9522V1Z" fill="#EA496D"/>
<path d="M99.5195 1H103.124L103.574 48.6019L99.5195 51.1064V1Z" fill="#EA496D"/>
<mask id="path-30-outside-1_3876_493" maskUnits="userSpaceOnUse" x="204.203" y="0.228516" width="147" height="87" fill="black">
<rect fill="white" x="204.203" y="0.228516" width="147" height="87"/>
<path d="M221.495 85.8566C218.101 85.8566 215.186 85.1201 212.751 83.6471C210.331 82.1741 208.464 80.1396 207.151 77.5436C205.852 74.933 205.203 71.9286 205.203 68.5304C205.203 65.1177 205.867 62.1061 207.195 59.4955C208.523 56.8703 210.398 54.8285 212.818 53.37C215.253 51.897 218.13 51.1605 221.451 51.1605C224.21 51.1605 226.653 51.6637 228.778 52.67C230.918 53.6617 232.622 55.0691 233.891 56.8922C235.16 58.7006 235.883 60.8153 236.06 63.2363H228.401C228.092 61.6175 227.354 60.2684 226.188 59.1892C225.037 58.0954 223.495 57.5484 221.561 57.5484C219.923 57.5484 218.485 57.986 217.245 58.861C216.005 59.7215 215.039 60.9612 214.345 62.58C213.666 64.1989 213.327 66.1386 213.327 68.3992C213.327 70.6889 213.666 72.6578 214.345 74.3059C215.024 75.9393 215.976 77.2008 217.201 78.0905C218.44 78.9656 219.894 79.4031 221.561 79.4031C222.742 79.4031 223.797 79.1843 224.727 78.7468C225.671 78.2947 226.461 77.6457 227.095 76.7998C227.73 75.9539 228.165 74.9257 228.401 73.7152H236.06C235.869 76.0924 235.16 78.1999 233.935 80.0375C232.711 81.8605 231.043 83.2898 228.933 84.3253C226.822 85.3462 224.343 85.8566 221.495 85.8566Z"/>
<path d="M257.471 85.8566C254.151 85.8566 251.273 85.1347 248.838 83.6909C246.403 82.247 244.514 80.2271 243.172 77.6311C241.843 75.0351 241.179 72.0015 241.179 68.5304C241.179 65.0594 241.843 62.0185 243.172 59.408C244.514 56.7974 246.403 54.7701 248.838 53.3263C251.273 51.8824 254.151 51.1605 257.471 51.1605C260.792 51.1605 263.669 51.8824 266.104 53.3263C268.539 54.7701 270.421 56.7974 271.749 59.408C273.092 62.0185 273.763 65.0594 273.763 68.5304C273.763 72.0015 273.092 75.0351 271.749 77.6311C270.421 80.2271 268.539 82.247 266.104 83.6909C263.669 85.1347 260.792 85.8566 257.471 85.8566ZM257.515 79.5125C259.316 79.5125 260.821 79.0239 262.031 78.0467C263.241 77.055 264.141 75.7278 264.732 74.0652C265.337 72.4026 265.639 70.5504 265.639 68.5086C265.639 66.4522 265.337 64.5927 264.732 62.9301C264.141 61.2529 263.241 59.9184 262.031 58.9267C260.821 57.9349 259.316 57.4391 257.515 57.4391C255.671 57.4391 254.136 57.9349 252.911 58.9267C251.701 59.9184 250.794 61.2529 250.189 62.9301C249.598 64.5927 249.303 66.4522 249.303 68.5086C249.303 70.5504 249.598 72.4026 250.189 74.0652C250.794 75.7278 251.701 77.055 252.911 78.0467C254.136 79.0239 255.671 79.5125 257.515 79.5125Z"/>
<path d="M293.182 85.791C290.511 85.791 288.12 85.1128 286.01 83.7565C283.899 82.4002 282.232 80.4313 281.007 77.8498C279.782 75.2684 279.17 72.1328 279.17 68.4429C279.17 64.7094 279.79 61.5591 281.029 58.9923C282.284 56.4109 283.973 54.4639 286.098 53.1513C288.223 51.8241 290.592 51.1605 293.204 51.1605C295.196 51.1605 296.834 51.4959 298.118 52.1668C299.402 52.8231 300.42 53.618 301.173 54.5514C301.925 55.4702 302.508 56.3379 302.921 57.1547H303.254V1.22852H311.289V85.2004H303.408V79.9062H302.921C302.508 80.723 301.911 81.5907 301.128 82.5095C300.346 83.4138 299.313 84.1867 298.029 84.8284C296.746 85.4702 295.13 85.791 293.182 85.791ZM295.417 79.2937C297.115 79.2937 298.561 78.8416 299.756 77.9374C300.951 77.0185 301.859 75.7424 302.479 74.109C303.099 72.4755 303.408 70.5723 303.408 68.3992C303.408 66.2261 303.099 64.3375 302.479 62.7332C301.874 61.1289 300.974 59.8819 299.778 58.9923C298.598 58.1027 297.144 57.6578 295.417 57.6578C293.632 57.6578 292.141 58.1172 290.946 59.036C289.751 59.9549 288.851 61.2237 288.245 62.8426C287.64 64.4614 287.338 66.3136 287.338 68.3992C287.338 70.4993 287.64 72.3734 288.245 74.0215C288.865 75.6549 289.773 76.9456 290.968 77.8936C292.178 78.827 293.661 79.2937 295.417 79.2937Z"/>
<path d="M334.88 85.8566C331.471 85.8566 328.527 85.1566 326.048 83.7565C323.583 82.3418 321.687 80.3438 320.359 77.7623C319.031 75.1663 318.367 72.1109 318.367 68.5961C318.367 65.1396 319.031 62.1061 320.359 59.4955C321.702 56.8703 323.576 54.8285 325.981 53.37C328.387 51.897 331.213 51.1605 334.459 51.1605C336.555 51.1605 338.532 51.4959 340.392 52.1668C342.266 52.8231 343.919 53.844 345.35 55.2295C346.796 56.615 347.933 58.3798 348.759 60.5237C349.586 62.653 349.999 65.1906 349.999 68.1367V70.565H322.13V65.2271H342.318C342.303 63.7103 341.971 62.3613 341.322 61.1799C340.672 59.984 339.765 59.0433 338.599 58.3579C337.448 57.6724 336.105 57.3297 334.57 57.3297C332.932 57.3297 331.493 57.7235 330.254 58.511C329.014 59.284 328.047 60.3049 327.354 61.5737C326.675 62.828 326.328 64.2062 326.313 65.7084V70.3681C326.313 72.3224 326.675 73.9996 327.398 75.3997C328.121 76.7852 329.132 77.8498 330.431 78.5936C331.729 79.3229 333.249 79.6875 334.991 79.6875C336.156 79.6875 337.212 79.527 338.156 79.2062C339.101 78.8707 339.92 78.3822 340.613 77.7405C341.307 77.0987 341.831 76.3039 342.185 75.3559L349.667 76.1872C349.194 78.1415 348.294 79.8479 346.966 81.3063C345.653 82.7502 343.97 83.8732 341.919 84.6753C339.868 85.4629 337.522 85.8566 334.88 85.8566Z"/>
</mask>
<g filter="url(#filter1_i_3876_493)">
<path d="M221.495 85.8566C218.101 85.8566 215.186 85.1201 212.751 83.6471C210.331 82.1741 208.464 80.1396 207.151 77.5436C205.852 74.933 205.203 71.9286 205.203 68.5304C205.203 65.1177 205.867 62.1061 207.195 59.4955C208.523 56.8703 210.398 54.8285 212.818 53.37C215.253 51.897 218.13 51.1605 221.451 51.1605C224.21 51.1605 226.653 51.6637 228.778 52.67C230.918 53.6617 232.622 55.0691 233.891 56.8922C235.16 58.7006 235.883 60.8153 236.06 63.2363H228.401C228.092 61.6175 227.354 60.2684 226.188 59.1892C225.037 58.0954 223.495 57.5484 221.561 57.5484C219.923 57.5484 218.485 57.986 217.245 58.861C216.005 59.7215 215.039 60.9612 214.345 62.58C213.666 64.1989 213.327 66.1386 213.327 68.3992C213.327 70.6889 213.666 72.6578 214.345 74.3059C215.024 75.9393 215.976 77.2008 217.201 78.0905C218.44 78.9656 219.894 79.4031 221.561 79.4031C222.742 79.4031 223.797 79.1843 224.727 78.7468C225.671 78.2947 226.461 77.6457 227.095 76.7998C227.73 75.9539 228.165 74.9257 228.401 73.7152H236.06C235.869 76.0924 235.16 78.1999 233.935 80.0375C232.711 81.8605 231.043 83.2898 228.933 84.3253C226.822 85.3462 224.343 85.8566 221.495 85.8566Z" fill="white"/>
<path d="M257.471 85.8566C254.151 85.8566 251.273 85.1347 248.838 83.6909C246.403 82.247 244.514 80.2271 243.172 77.6311C241.843 75.0351 241.179 72.0015 241.179 68.5304C241.179 65.0594 241.843 62.0185 243.172 59.408C244.514 56.7974 246.403 54.7701 248.838 53.3263C251.273 51.8824 254.151 51.1605 257.471 51.1605C260.792 51.1605 263.669 51.8824 266.104 53.3263C268.539 54.7701 270.421 56.7974 271.749 59.408C273.092 62.0185 273.763 65.0594 273.763 68.5304C273.763 72.0015 273.092 75.0351 271.749 77.6311C270.421 80.2271 268.539 82.247 266.104 83.6909C263.669 85.1347 260.792 85.8566 257.471 85.8566ZM257.515 79.5125C259.316 79.5125 260.821 79.0239 262.031 78.0467C263.241 77.055 264.141 75.7278 264.732 74.0652C265.337 72.4026 265.639 70.5504 265.639 68.5086C265.639 66.4522 265.337 64.5927 264.732 62.9301C264.141 61.2529 263.241 59.9184 262.031 58.9267C260.821 57.9349 259.316 57.4391 257.515 57.4391C255.671 57.4391 254.136 57.9349 252.911 58.9267C251.701 59.9184 250.794 61.2529 250.189 62.9301C249.598 64.5927 249.303 66.4522 249.303 68.5086C249.303 70.5504 249.598 72.4026 250.189 74.0652C250.794 75.7278 251.701 77.055 252.911 78.0467C254.136 79.0239 255.671 79.5125 257.515 79.5125Z" fill="white"/>
<path d="M293.182 85.791C290.511 85.791 288.12 85.1128 286.01 83.7565C283.899 82.4002 282.232 80.4313 281.007 77.8498C279.782 75.2684 279.17 72.1328 279.17 68.4429C279.17 64.7094 279.79 61.5591 281.029 58.9923C282.284 56.4109 283.973 54.4639 286.098 53.1513C288.223 51.8241 290.592 51.1605 293.204 51.1605C295.196 51.1605 296.834 51.4959 298.118 52.1668C299.402 52.8231 300.42 53.618 301.173 54.5514C301.925 55.4702 302.508 56.3379 302.921 57.1547H303.254V1.22852H311.289V85.2004H303.408V79.9062H302.921C302.508 80.723 301.911 81.5907 301.128 82.5095C300.346 83.4138 299.313 84.1867 298.029 84.8284C296.746 85.4702 295.13 85.791 293.182 85.791ZM295.417 79.2937C297.115 79.2937 298.561 78.8416 299.756 77.9374C300.951 77.0185 301.859 75.7424 302.479 74.109C303.099 72.4755 303.408 70.5723 303.408 68.3992C303.408 66.2261 303.099 64.3375 302.479 62.7332C301.874 61.1289 300.974 59.8819 299.778 58.9923C298.598 58.1027 297.144 57.6578 295.417 57.6578C293.632 57.6578 292.141 58.1172 290.946 59.036C289.751 59.9549 288.851 61.2237 288.245 62.8426C287.64 64.4614 287.338 66.3136 287.338 68.3992C287.338 70.4993 287.64 72.3734 288.245 74.0215C288.865 75.6549 289.773 76.9456 290.968 77.8936C292.178 78.827 293.661 79.2937 295.417 79.2937Z" fill="white"/>
<path d="M334.88 85.8566C331.471 85.8566 328.527 85.1566 326.048 83.7565C323.583 82.3418 321.687 80.3438 320.359 77.7623C319.031 75.1663 318.367 72.1109 318.367 68.5961C318.367 65.1396 319.031 62.1061 320.359 59.4955C321.702 56.8703 323.576 54.8285 325.981 53.37C328.387 51.897 331.213 51.1605 334.459 51.1605C336.555 51.1605 338.532 51.4959 340.392 52.1668C342.266 52.8231 343.919 53.844 345.35 55.2295C346.796 56.615 347.933 58.3798 348.759 60.5237C349.586 62.653 349.999 65.1906 349.999 68.1367V70.565H322.13V65.2271H342.318C342.303 63.7103 341.971 62.3613 341.322 61.1799C340.672 59.984 339.765 59.0433 338.599 58.3579C337.448 57.6724 336.105 57.3297 334.57 57.3297C332.932 57.3297 331.493 57.7235 330.254 58.511C329.014 59.284 328.047 60.3049 327.354 61.5737C326.675 62.828 326.328 64.2062 326.313 65.7084V70.3681C326.313 72.3224 326.675 73.9996 327.398 75.3997C328.121 76.7852 329.132 77.8498 330.431 78.5936C331.729 79.3229 333.249 79.6875 334.991 79.6875C336.156 79.6875 337.212 79.527 338.156 79.2062C339.101 78.8707 339.92 78.3822 340.613 77.7405C341.307 77.0987 341.831 76.3039 342.185 75.3559L349.667 76.1872C349.194 78.1415 348.294 79.8479 346.966 81.3063C345.653 82.7502 343.97 83.8732 341.919 84.6753C339.868 85.4629 337.522 85.8566 334.88 85.8566Z" fill="white"/>
</g>
<path d="M221.495 85.8566C218.101 85.8566 215.186 85.1201 212.751 83.6471C210.331 82.1741 208.464 80.1396 207.151 77.5436C205.852 74.933 205.203 71.9286 205.203 68.5304C205.203 65.1177 205.867 62.1061 207.195 59.4955C208.523 56.8703 210.398 54.8285 212.818 53.37C215.253 51.897 218.13 51.1605 221.451 51.1605C224.21 51.1605 226.653 51.6637 228.778 52.67C230.918 53.6617 232.622 55.0691 233.891 56.8922C235.16 58.7006 235.883 60.8153 236.06 63.2363H228.401C228.092 61.6175 227.354 60.2684 226.188 59.1892C225.037 58.0954 223.495 57.5484 221.561 57.5484C219.923 57.5484 218.485 57.986 217.245 58.861C216.005 59.7215 215.039 60.9612 214.345 62.58C213.666 64.1989 213.327 66.1386 213.327 68.3992C213.327 70.6889 213.666 72.6578 214.345 74.3059C215.024 75.9393 215.976 77.2008 217.201 78.0905C218.44 78.9656 219.894 79.4031 221.561 79.4031C222.742 79.4031 223.797 79.1843 224.727 78.7468C225.671 78.2947 226.461 77.6457 227.095 76.7998C227.73 75.9539 228.165 74.9257 228.401 73.7152H236.06C235.869 76.0924 235.16 78.1999 233.935 80.0375C232.711 81.8605 231.043 83.2898 228.933 84.3253C226.822 85.3462 224.343 85.8566 221.495 85.8566Z" stroke="#FE7272" stroke-width="1.32052" mask="url(#path-30-outside-1_3876_493)"/>
<path d="M257.471 85.8566C254.151 85.8566 251.273 85.1347 248.838 83.6909C246.403 82.247 244.514 80.2271 243.172 77.6311C241.843 75.0351 241.179 72.0015 241.179 68.5304C241.179 65.0594 241.843 62.0185 243.172 59.408C244.514 56.7974 246.403 54.7701 248.838 53.3263C251.273 51.8824 254.151 51.1605 257.471 51.1605C260.792 51.1605 263.669 51.8824 266.104 53.3263C268.539 54.7701 270.421 56.7974 271.749 59.408C273.092 62.0185 273.763 65.0594 273.763 68.5304C273.763 72.0015 273.092 75.0351 271.749 77.6311C270.421 80.2271 268.539 82.247 266.104 83.6909C263.669 85.1347 260.792 85.8566 257.471 85.8566ZM257.515 79.5125C259.316 79.5125 260.821 79.0239 262.031 78.0467C263.241 77.055 264.141 75.7278 264.732 74.0652C265.337 72.4026 265.639 70.5504 265.639 68.5086C265.639 66.4522 265.337 64.5927 264.732 62.9301C264.141 61.2529 263.241 59.9184 262.031 58.9267C260.821 57.9349 259.316 57.4391 257.515 57.4391C255.671 57.4391 254.136 57.9349 252.911 58.9267C251.701 59.9184 250.794 61.2529 250.189 62.9301C249.598 64.5927 249.303 66.4522 249.303 68.5086C249.303 70.5504 249.598 72.4026 250.189 74.0652C250.794 75.7278 251.701 77.055 252.911 78.0467C254.136 79.0239 255.671 79.5125 257.515 79.5125Z" stroke="#FE7272" stroke-width="1.32052" mask="url(#path-30-outside-1_3876_493)"/>
<path d="M293.182 85.791C290.511 85.791 288.12 85.1128 286.01 83.7565C283.899 82.4002 282.232 80.4313 281.007 77.8498C279.782 75.2684 279.17 72.1328 279.17 68.4429C279.17 64.7094 279.79 61.5591 281.029 58.9923C282.284 56.4109 283.973 54.4639 286.098 53.1513C288.223 51.8241 290.592 51.1605 293.204 51.1605C295.196 51.1605 296.834 51.4959 298.118 52.1668C299.402 52.8231 300.42 53.618 301.173 54.5514C301.925 55.4702 302.508 56.3379 302.921 57.1547H303.254V1.22852H311.289V85.2004H303.408V79.9062H302.921C302.508 80.723 301.911 81.5907 301.128 82.5095C300.346 83.4138 299.313 84.1867 298.029 84.8284C296.746 85.4702 295.13 85.791 293.182 85.791ZM295.417 79.2937C297.115 79.2937 298.561 78.8416 299.756 77.9374C300.951 77.0185 301.859 75.7424 302.479 74.109C303.099 72.4755 303.408 70.5723 303.408 68.3992C303.408 66.2261 303.099 64.3375 302.479 62.7332C301.874 61.1289 300.974 59.8819 299.778 58.9923C298.598 58.1027 297.144 57.6578 295.417 57.6578C293.632 57.6578 292.141 58.1172 290.946 59.036C289.751 59.9549 288.851 61.2237 288.245 62.8426C287.64 64.4614 287.338 66.3136 287.338 68.3992C287.338 70.4993 287.64 72.3734 288.245 74.0215C288.865 75.6549 289.773 76.9456 290.968 77.8936C292.178 78.827 293.661 79.2937 295.417 79.2937Z" stroke="#FE7272" stroke-width="1.32052" mask="url(#path-30-outside-1_3876_493)"/>
<path d="M334.88 85.8566C331.471 85.8566 328.527 85.1566 326.048 83.7565C323.583 82.3418 321.687 80.3438 320.359 77.7623C319.031 75.1663 318.367 72.1109 318.367 68.5961C318.367 65.1396 319.031 62.1061 320.359 59.4955C321.702 56.8703 323.576 54.8285 325.981 53.37C328.387 51.897 331.213 51.1605 334.459 51.1605C336.555 51.1605 338.532 51.4959 340.392 52.1668C342.266 52.8231 343.919 53.844 345.35 55.2295C346.796 56.615 347.933 58.3798 348.759 60.5237C349.586 62.653 349.999 65.1906 349.999 68.1367V70.565H322.13V65.2271H342.318C342.303 63.7103 341.971 62.3613 341.322 61.1799C340.672 59.984 339.765 59.0433 338.599 58.3579C337.448 57.6724 336.105 57.3297 334.57 57.3297C332.932 57.3297 331.493 57.7235 330.254 58.511C329.014 59.284 328.047 60.3049 327.354 61.5737C326.675 62.828 326.328 64.2062 326.313 65.7084V70.3681C326.313 72.3224 326.675 73.9996 327.398 75.3997C328.121 76.7852 329.132 77.8498 330.431 78.5936C331.729 79.3229 333.249 79.6875 334.991 79.6875C336.156 79.6875 337.212 79.527 338.156 79.2062C339.101 78.8707 339.92 78.3822 340.613 77.7405C341.307 77.0987 341.831 76.3039 342.185 75.3559L349.667 76.1872C349.194 78.1415 348.294 79.8479 346.966 81.3063C345.653 82.7502 343.97 83.8732 341.919 84.6753C339.868 85.4629 337.522 85.8566 334.88 85.8566Z" stroke="#FE7272" stroke-width="1.32052" mask="url(#path-30-outside-1_3876_493)"/>
</g>
<mask id="path-31-inside-2_3876_493" fill="white">
<path d="M77 85.5003V40.5375V1H85.1804L85.2138 40.5375V61.1967H85.7673L105.555 45.1113V1H110.794H115.299L115.584 45.1113L95.9516 60.7137L113.641 85.5003H103.767L90.2395 66.2243L85.2138 72.1081V85.5003H77Z"/>
<path d="M128.624 86.1809C126.469 86.1809 124.528 85.8003 122.801 85.0393C121.089 84.2635 119.731 83.1219 118.728 81.6144C117.739 80.1068 117.244 78.248 117.244 76.0379C117.244 74.1352 117.599 72.5618 118.307 71.3177C119.016 70.0736 119.982 69.0783 121.207 68.3319C122.432 67.5854 123.812 67.0219 125.348 66.6414C126.897 66.2462 128.499 65.9608 130.152 65.7852C132.144 65.5803 133.761 65.3973 135 65.2363C136.24 65.0607 137.141 64.7972 137.701 64.4459C138.277 64.08 138.565 63.5165 138.565 62.7555V62.6237C138.565 60.9698 138.07 59.6892 137.082 58.7817C136.093 57.8743 134.668 57.4205 132.809 57.4205C130.846 57.4205 129.288 57.845 128.137 58.6939C127.001 59.5428 126.233 60.5454 125.835 61.7016L118.351 60.6478C118.942 58.5987 119.916 56.8863 121.274 55.5105C122.632 54.12 124.292 53.0809 126.255 52.393C128.218 51.6904 130.388 51.3391 132.764 51.3391C134.403 51.3391 136.034 51.5294 137.657 51.91C139.281 52.2905 140.764 52.9199 142.107 53.798C143.45 54.6616 144.528 55.8398 145.34 57.3327C146.166 58.8256 146.579 60.6917 146.579 62.9311V85.5003H138.875V80.8679H138.609C138.122 81.8047 137.436 82.6828 136.55 83.5024C135.679 84.3074 134.58 84.9588 133.251 85.4564C131.938 85.9394 130.395 86.1809 128.624 86.1809ZM130.705 80.341C132.314 80.341 133.709 80.0263 134.89 79.397C136.07 78.753 136.978 77.904 137.613 76.8502C138.262 75.7964 138.587 74.6475 138.587 73.4034V69.4296C138.336 69.6345 137.908 69.8248 137.303 70.0004C136.713 70.1761 136.048 70.3297 135.31 70.4615C134.572 70.5932 133.842 70.7103 133.119 70.8127C132.395 70.9152 131.768 71.003 131.237 71.0762C130.041 71.2372 128.971 71.5006 128.026 71.8666C127.082 72.2325 126.336 72.7447 125.79 73.4034C125.244 74.0474 124.971 74.8817 124.971 75.9062C124.971 77.3698 125.51 78.4749 126.587 79.2213C127.665 79.9678 129.037 80.341 130.705 80.341Z"/>
<path d="M162.653 1V85.5003H154.638V1H162.653Z"/>
<path d="M180.68 86.1809C178.525 86.1809 176.584 85.8003 174.857 85.0393C173.145 84.2635 171.787 83.1219 170.784 81.6144C169.795 80.1068 169.3 78.248 169.3 76.0379C169.3 74.1352 169.655 72.5618 170.363 71.3177C171.071 70.0736 172.038 69.0783 173.263 68.3319C174.488 67.5854 175.868 67.0219 177.403 66.6414C178.953 66.2462 180.555 65.9608 182.208 65.7852C184.2 65.5803 185.816 65.3973 187.056 65.2363C188.296 65.0607 189.196 64.7972 189.757 64.4459C190.333 64.08 190.621 63.5165 190.621 62.7555V62.6237C190.621 60.9698 190.126 59.6892 189.137 58.7817C188.149 57.8743 186.724 57.4205 184.864 57.4205C182.901 57.4205 181.344 57.845 180.193 58.6939C179.057 59.5428 178.289 60.5454 177.89 61.7016L170.407 60.6478C170.998 58.5987 171.972 56.8863 173.33 55.5105C174.688 54.12 176.348 53.0809 178.311 52.393C180.274 51.6904 182.444 51.3391 184.82 51.3391C186.459 51.3391 188.09 51.5294 189.713 51.91C191.337 52.2905 192.82 52.9199 194.163 53.798C195.506 54.6616 196.584 55.8398 197.396 57.3327C198.222 58.8256 198.635 60.6917 198.635 62.9311V85.5003H190.931V80.8679H190.665C190.178 81.8047 189.492 82.6828 188.606 83.5024C187.735 84.3074 186.636 84.9588 185.307 85.4564C183.994 85.9394 182.451 86.1809 180.68 86.1809ZM182.761 80.341C184.37 80.341 185.765 80.0263 186.946 79.397C188.126 78.753 189.034 77.904 189.669 76.8502C190.318 75.7964 190.643 74.6475 190.643 73.4034V69.4296C190.392 69.6345 189.964 69.8248 189.359 70.0004C188.768 70.1761 188.104 70.3297 187.366 70.4615C186.628 70.5932 185.898 70.7103 185.174 70.8127C184.451 70.9152 183.824 71.003 183.293 71.0762C182.097 71.2372 181.027 71.5006 180.082 71.8666C179.138 72.2325 178.392 72.7447 177.846 73.4034C177.3 74.0474 177.027 74.8817 177.027 75.9062C177.027 77.3698 177.566 78.4749 178.643 79.2213C179.721 79.9678 181.093 80.341 182.761 80.341Z"/>
</mask>
<g filter="url(#filter2_i_3876_493)">
<path d="M77 85.5003V40.5375V1H85.1804L85.2138 40.5375V61.1967H85.7673L105.555 45.1113V1H110.794H115.299L115.584 45.1113L95.9516 60.7137L113.641 85.5003H103.767L90.2395 66.2243L85.2138 72.1081V85.5003H77Z" fill="#DF2323"/>
<path d="M128.624 86.1809C126.469 86.1809 124.528 85.8003 122.801 85.0393C121.089 84.2635 119.731 83.1219 118.728 81.6144C117.739 80.1068 117.244 78.248 117.244 76.0379C117.244 74.1352 117.599 72.5618 118.307 71.3177C119.016 70.0736 119.982 69.0783 121.207 68.3319C122.432 67.5854 123.812 67.0219 125.348 66.6414C126.897 66.2462 128.499 65.9608 130.152 65.7852C132.144 65.5803 133.761 65.3973 135 65.2363C136.24 65.0607 137.141 64.7972 137.701 64.4459C138.277 64.08 138.565 63.5165 138.565 62.7555V62.6237C138.565 60.9698 138.07 59.6892 137.082 58.7817C136.093 57.8743 134.668 57.4205 132.809 57.4205C130.846 57.4205 129.288 57.845 128.137 58.6939C127.001 59.5428 126.233 60.5454 125.835 61.7016L118.351 60.6478C118.942 58.5987 119.916 56.8863 121.274 55.5105C122.632 54.12 124.292 53.0809 126.255 52.393C128.218 51.6904 130.388 51.3391 132.764 51.3391C134.403 51.3391 136.034 51.5294 137.657 51.91C139.281 52.2905 140.764 52.9199 142.107 53.798C143.45 54.6616 144.528 55.8398 145.34 57.3327C146.166 58.8256 146.579 60.6917 146.579 62.9311V85.5003H138.875V80.8679H138.609C138.122 81.8047 137.436 82.6828 136.55 83.5024C135.679 84.3074 134.58 84.9588 133.251 85.4564C131.938 85.9394 130.395 86.1809 128.624 86.1809ZM130.705 80.341C132.314 80.341 133.709 80.0263 134.89 79.397C136.07 78.753 136.978 77.904 137.613 76.8502C138.262 75.7964 138.587 74.6475 138.587 73.4034V69.4296C138.336 69.6345 137.908 69.8248 137.303 70.0004C136.713 70.1761 136.048 70.3297 135.31 70.4615C134.572 70.5932 133.842 70.7103 133.119 70.8127C132.395 70.9152 131.768 71.003 131.237 71.0762C130.041 71.2372 128.971 71.5006 128.026 71.8666C127.082 72.2325 126.336 72.7447 125.79 73.4034C125.244 74.0474 124.971 74.8817 124.971 75.9062C124.971 77.3698 125.51 78.4749 126.587 79.2213C127.665 79.9678 129.037 80.341 130.705 80.341Z" fill="#DF2323"/>
<path d="M162.653 1V85.5003H154.638V1H162.653Z" fill="#DF2323"/>
<path d="M180.68 86.1809C178.525 86.1809 176.584 85.8003 174.857 85.0393C173.145 84.2635 171.787 83.1219 170.784 81.6144C169.795 80.1068 169.3 78.248 169.3 76.0379C169.3 74.1352 169.655 72.5618 170.363 71.3177C171.071 70.0736 172.038 69.0783 173.263 68.3319C174.488 67.5854 175.868 67.0219 177.403 66.6414C178.953 66.2462 180.555 65.9608 182.208 65.7852C184.2 65.5803 185.816 65.3973 187.056 65.2363C188.296 65.0607 189.196 64.7972 189.757 64.4459C190.333 64.08 190.621 63.5165 190.621 62.7555V62.6237C190.621 60.9698 190.126 59.6892 189.137 58.7817C188.149 57.8743 186.724 57.4205 184.864 57.4205C182.901 57.4205 181.344 57.845 180.193 58.6939C179.057 59.5428 178.289 60.5454 177.89 61.7016L170.407 60.6478C170.998 58.5987 171.972 56.8863 173.33 55.5105C174.688 54.12 176.348 53.0809 178.311 52.393C180.274 51.6904 182.444 51.3391 184.82 51.3391C186.459 51.3391 188.09 51.5294 189.713 51.91C191.337 52.2905 192.82 52.9199 194.163 53.798C195.506 54.6616 196.584 55.8398 197.396 57.3327C198.222 58.8256 198.635 60.6917 198.635 62.9311V85.5003H190.931V80.8679H190.665C190.178 81.8047 189.492 82.6828 188.606 83.5024C187.735 84.3074 186.636 84.9588 185.307 85.4564C183.994 85.9394 182.451 86.1809 180.68 86.1809ZM182.761 80.341C184.37 80.341 185.765 80.0263 186.946 79.397C188.126 78.753 189.034 77.904 189.669 76.8502C190.318 75.7964 190.643 74.6475 190.643 73.4034V69.4296C190.392 69.6345 189.964 69.8248 189.359 70.0004C188.768 70.1761 188.104 70.3297 187.366 70.4615C186.628 70.5932 185.898 70.7103 185.174 70.8127C184.451 70.9152 183.824 71.003 183.293 71.0762C182.097 71.2372 181.027 71.5006 180.082 71.8666C179.138 72.2325 178.392 72.7447 177.846 73.4034C177.3 74.0474 177.027 74.8817 177.027 75.9062C177.027 77.3698 177.566 78.4749 178.643 79.2213C179.721 79.9678 181.093 80.341 182.761 80.341Z" fill="#DF2323"/>
</g>
<path d="M77 85.5003V40.5375V1H85.1804L85.2138 40.5375V61.1967H85.7673L105.555 45.1113V1H110.794H115.299L115.584 45.1113L95.9516 60.7137L113.641 85.5003H103.767L90.2395 66.2243L85.2138 72.1081V85.5003H77Z" stroke="#DF2323" stroke-width="1.32052" mask="url(#path-31-inside-2_3876_493)"/>
<path d="M128.624 86.1809C126.469 86.1809 124.528 85.8003 122.801 85.0393C121.089 84.2635 119.731 83.1219 118.728 81.6144C117.739 80.1068 117.244 78.248 117.244 76.0379C117.244 74.1352 117.599 72.5618 118.307 71.3177C119.016 70.0736 119.982 69.0783 121.207 68.3319C122.432 67.5854 123.812 67.0219 125.348 66.6414C126.897 66.2462 128.499 65.9608 130.152 65.7852C132.144 65.5803 133.761 65.3973 135 65.2363C136.24 65.0607 137.141 64.7972 137.701 64.4459C138.277 64.08 138.565 63.5165 138.565 62.7555V62.6237C138.565 60.9698 138.07 59.6892 137.082 58.7817C136.093 57.8743 134.668 57.4205 132.809 57.4205C130.846 57.4205 129.288 57.845 128.137 58.6939C127.001 59.5428 126.233 60.5454 125.835 61.7016L118.351 60.6478C118.942 58.5987 119.916 56.8863 121.274 55.5105C122.632 54.12 124.292 53.0809 126.255 52.393C128.218 51.6904 130.388 51.3391 132.764 51.3391C134.403 51.3391 136.034 51.5294 137.657 51.91C139.281 52.2905 140.764 52.9199 142.107 53.798C143.45 54.6616 144.528 55.8398 145.34 57.3327C146.166 58.8256 146.579 60.6917 146.579 62.9311V85.5003H138.875V80.8679H138.609C138.122 81.8047 137.436 82.6828 136.55 83.5024C135.679 84.3074 134.58 84.9588 133.251 85.4564C131.938 85.9394 130.395 86.1809 128.624 86.1809ZM130.705 80.341C132.314 80.341 133.709 80.0263 134.89 79.397C136.07 78.753 136.978 77.904 137.613 76.8502C138.262 75.7964 138.587 74.6475 138.587 73.4034V69.4296C138.336 69.6345 137.908 69.8248 137.303 70.0004C136.713 70.1761 136.048 70.3297 135.31 70.4615C134.572 70.5932 133.842 70.7103 133.119 70.8127C132.395 70.9152 131.768 71.003 131.237 71.0762C130.041 71.2372 128.971 71.5006 128.026 71.8666C127.082 72.2325 126.336 72.7447 125.79 73.4034C125.244 74.0474 124.971 74.8817 124.971 75.9062C124.971 77.3698 125.51 78.4749 126.587 79.2213C127.665 79.9678 129.037 80.341 130.705 80.341Z" stroke="#DF2323" stroke-width="1.32052" mask="url(#path-31-inside-2_3876_493)"/>
<path d="M162.653 1V85.5003H154.638V1H162.653Z" stroke="#DF2323" stroke-width="1.32052" mask="url(#path-31-inside-2_3876_493)"/>
<path d="M180.68 86.1809C178.525 86.1809 176.584 85.8003 174.857 85.0393C173.145 84.2635 171.787 83.1219 170.784 81.6144C169.795 80.1068 169.3 78.248 169.3 76.0379C169.3 74.1352 169.655 72.5618 170.363 71.3177C171.071 70.0736 172.038 69.0783 173.263 68.3319C174.488 67.5854 175.868 67.0219 177.403 66.6414C178.953 66.2462 180.555 65.9608 182.208 65.7852C184.2 65.5803 185.816 65.3973 187.056 65.2363C188.296 65.0607 189.196 64.7972 189.757 64.4459C190.333 64.08 190.621 63.5165 190.621 62.7555V62.6237C190.621 60.9698 190.126 59.6892 189.137 58.7817C188.149 57.8743 186.724 57.4205 184.864 57.4205C182.901 57.4205 181.344 57.845 180.193 58.6939C179.057 59.5428 178.289 60.5454 177.89 61.7016L170.407 60.6478C170.998 58.5987 171.972 56.8863 173.33 55.5105C174.688 54.12 176.348 53.0809 178.311 52.393C180.274 51.6904 182.444 51.3391 184.82 51.3391C186.459 51.3391 188.09 51.5294 189.713 51.91C191.337 52.2905 192.82 52.9199 194.163 53.798C195.506 54.6616 196.584 55.8398 197.396 57.3327C198.222 58.8256 198.635 60.6917 198.635 62.9311V85.5003H190.931V80.8679H190.665C190.178 81.8047 189.492 82.6828 188.606 83.5024C187.735 84.3074 186.636 84.9588 185.307 85.4564C183.994 85.9394 182.451 86.1809 180.68 86.1809ZM182.761 80.341C184.37 80.341 185.765 80.0263 186.946 79.397C188.126 78.753 189.034 77.904 189.669 76.8502C190.318 75.7964 190.643 74.6475 190.643 73.4034V69.4296C190.392 69.6345 189.964 69.8248 189.359 70.0004C188.768 70.1761 188.104 70.3297 187.366 70.4615C186.628 70.5932 185.898 70.7103 185.174 70.8127C184.451 70.9152 183.824 71.003 183.293 71.0762C182.097 71.2372 181.027 71.5006 180.082 71.8666C179.138 72.2325 178.392 72.7447 177.846 73.4034C177.3 74.0474 177.027 74.8817 177.027 75.9062C177.027 77.3698 177.566 78.4749 178.643 79.2213C179.721 79.9678 181.093 80.341 182.761 80.341Z" stroke="#DF2323" stroke-width="1.32052" mask="url(#path-31-inside-2_3876_493)"/>
<defs>
<filter id="filter0_i_3876_493" x="78.625" y="0.568359" width="273.18" height="87.0938" filterUnits="userSpaceOnUse" color-interpolation-filters="sRGB">
<feFlood flood-opacity="0" result="BackgroundImageFix"/>
<feBlend mode="normal" in="SourceGraphic" in2="BackgroundImageFix" result="shape"/>
<feColorMatrix in="SourceAlpha" type="matrix" values="0 0 0 0 0 0 0 0 0 0 0 0 0 0 0 0 0 0 127 0" result="hardAlpha"/>
<feOffset dx="1.14461" dy="1.14461"/>
<feGaussianBlur stdDeviation="2.28921"/>
<feComposite in2="hardAlpha" operator="arithmetic" k2="-1" k3="1"/>
<feColorMatrix type="matrix" values="0 0 0 0 0 0 0 0 0 0 0 0 0 0 0 0 0 0 0.25 0"/>
<feBlend mode="normal" in2="shape" result="effect1_innerShadow_3876_493"/>
</filter>
<filter id="filter1_i_3876_493" x="204.543" y="0.568359" width="146.117" height="89.9492" filterUnits="userSpaceOnUse" color-interpolation-filters="sRGB">
<feFlood flood-opacity="0" result="BackgroundImageFix"/>
<feBlend mode="normal" in="SourceGraphic" in2="BackgroundImageFix" result="shape"/>
<feColorMatrix in="SourceAlpha" type="matrix" values="0 0 0 0 0 0 0 0 0 0 0 0 0 0 0 0 0 0 127 0" result="hardAlpha"/>
<feOffset dy="4"/>
<feGaussianBlur stdDeviation="2"/>
<feComposite in2="hardAlpha" operator="arithmetic" k2="-1" k3="1"/>
<feColorMatrix type="matrix" values="0 0 0 0 0 0 0 0 0 0 0 0 0 0 0 0 0 0 0.25 0"/>
<feBlend mode="normal" in2="shape" result="effect1_innerShadow_3876_493"/>
</filter>
<filter id="filter2_i_3876_493" x="77" y="1" width="121.637" height="89.1816" filterUnits="userSpaceOnUse" color-interpolation-filters="sRGB">
<feFlood flood-opacity="0" result="BackgroundImageFix"/>
<feBlend mode="normal" in="SourceGraphic" in2="BackgroundImageFix" result="shape"/>
<feColorMatrix in="SourceAlpha" type="matrix" values="0 0 0 0 0 0 0 0 0 0 0 0 0 0 0 0 0 0 127 0" result="hardAlpha"/>
<feOffset dy="4"/>
<feGaussianBlur stdDeviation="2"/>
<feComposite in2="hardAlpha" operator="arithmetic" k2="-1" k3="1"/>
<feColorMatrix type="matrix" values="0 0 0 0 0 0 0 0 0 0 0 0 0 0 0 0 0 0 0.25 0"/>
<feBlend mode="normal" in2="shape" result="effect1_innerShadow_3876_493"/>
</filter>
</defs>
</svg>
