<svg width="319" height="80" viewBox="0 0 319 80" fill="none" xmlns="http://www.w3.org/2000/svg">
<rect opacity="0.5" y="38.8594" width="50" height="1.9375" fill="white"/>
<path fill-rule="evenodd" clip-rule="evenodd" d="M264.934 14.49C250.911 22.6317 243.969 13.0577 230.593 27.0794C226.221 31.5678 224.602 37.6914 223.954 44.3022C223.533 50.1474 223.954 62.2208 224.148 68.1356C224.926 66.8831 224.602 65.3174 225.671 64.1344C226.642 58.7414 233.055 53.1745 237.848 51.5392C242.511 49.9387 254.268 48.8601 256.599 53.8703C257.636 52.6874 259.19 53.2441 260.81 51.2608C262.461 49.2428 263.239 46.0766 263.886 45.346C259.158 45.8679 257.895 47.5727 252.875 44.5109C248.665 41.971 248.697 40.127 246.625 36.2997C244.819 40.0343 242.536 42.0671 236.863 41.2751C236.669 38.0393 239.305 34.9079 241.864 33.4814C245.459 31.4634 247.985 32.9943 251.45 33.8989C257.02 35.3255 266.834 34.0381 270.169 28.8539C271.303 27.2186 273.278 23.0782 273.343 21.1297C271.659 21.7908 269.36 25.2006 265.376 26.0008C268.032 23.113 271.853 20.921 272.501 15.9455C269.554 17.9983 269.068 19.738 264.793 20.7818C266.38 19.4249 269.943 15.9455 270.169 13.7188C269.651 13.8927 266.165 15.7565 264.934 16.348C263.25 17.1831 260.768 18.7076 258.985 19.2464C260.768 18.336 263.315 16.9256 264.934 14.49Z" fill="url(#paint0_linear_3875_156)"/>
<path fill-rule="evenodd" clip-rule="evenodd" d="M264.378 15.0124C261.271 17.7929 260.993 17.8365 257.949 19.7688C260.37 19.3972 262.625 18.077 264.309 17.242C265.539 16.6505 268.734 14.6662 269.22 14.4922C268.993 16.719 266.591 19.5887 263.673 21.3284C268.736 19.9918 268.858 18.9581 271.572 16.7961C270.925 21.8063 265.554 25.64 264.256 26.5474C268.239 25.7471 270.673 23.1132 272.472 21.8498C272.407 23.7982 270.492 28.2757 269.359 29.8762C277.066 22.5348 279.056 9.53339 272.838 0C271.769 3.61851 271.154 5.63653 269.146 8.87232C268.239 10.3684 266.384 13.1544 264.378 15.0124Z" fill="url(#paint1_linear_3875_156)"/>
<path d="M229.572 75.8467C230.737 75.8467 232.11 77.4169 231.902 79.7184H223.836C223.836 79.7184 223.612 48.2307 224.013 43.5336C224.415 38.8365 226.193 31.53 229.669 28.2246C228.049 43.2618 241.623 43.3274 246.976 35.7051C251.536 44.9101 255.646 46.8893 264.484 44.9253C261.28 55.6947 251.586 56.407 251.029 56.407C250.472 56.407 233.739 52.479 229.863 67.8888L229.572 75.8467Z" fill="#F22929"/>
<mask id="mask0_3875_156" style="mask-type:alpha" maskUnits="userSpaceOnUse" x="223" y="28" width="42" height="52">
<path d="M229.572 75.8467C230.737 75.8467 232.11 77.4169 231.902 79.7184H223.836C223.836 79.7184 223.612 48.2307 224.013 43.5336C224.415 38.8365 226.193 31.53 229.669 28.2246C228.049 43.2618 241.623 43.3274 246.976 35.7051C251.536 44.9101 255.646 46.8893 264.484 44.9253C261.28 55.6947 251.586 56.407 251.029 56.407C250.472 56.407 233.739 52.479 229.863 67.8888L229.572 75.8467Z" fill="#DF2323"/>
</mask>
<g mask="url(#mask0_3875_156)">
<path d="M220.488 69.5726C220.488 58.4373 231.571 49.3926 243.645 49.3926C255.718 49.3926 265.505 58.4195 265.505 69.5548V70.9822C265.505 82.1174 255.718 92.5789 243.645 92.5789C231.571 92.5789 220.812 85.4049 220.812 74.2697L220.488 69.5726Z" fill="url(#paint2_linear_3875_156)"/>
</g>
<g opacity="0.9" filter="url(#filter0_i_3875_156)">
<path fill-rule="evenodd" clip-rule="evenodd" d="M251.57 57.6596C249.918 57.1989 247.084 56.9249 245.043 57.1159C245.016 61.6169 246.253 66.0424 248.619 69.8003C251.387 74.1972 255.52 77.3939 260.279 78.8198C265.039 80.2457 270.115 79.8079 274.601 77.5845C279.088 75.3612 282.693 71.4971 284.772 66.6821C286.852 61.8671 287.271 56.4147 285.955 51.2985C284.638 46.1823 281.672 41.7353 277.586 38.7515C273.499 35.7677 268.559 34.4414 263.646 35.0094C259.349 35.5063 255.317 37.4246 252.098 40.4743C253.592 42.1438 255.937 43.9105 258.572 44.0404C260.323 42.9241 262.29 42.2136 264.344 41.976C267.719 41.5859 271.112 42.4969 273.919 44.5466C276.726 46.5962 278.764 49.651 279.668 53.1654C280.573 56.6799 280.285 60.4253 278.856 63.7328C277.428 67.0403 274.951 69.6947 271.869 71.222C268.787 72.7492 265.301 73.05 262.031 72.0705C258.762 71.091 255.923 68.8951 254.022 65.8748C252.484 63.4321 251.64 60.5789 251.57 57.6596Z" fill="white"/>
</g>
<g filter="url(#filter1_i_3875_156)">
<path d="M158.247 57.1268C158.247 69.333 148.998 79.4139 137.588 79.4139C126.179 79.4139 116.93 69.333 116.93 57.1268C116.93 44.9205 126.179 35.0254 137.588 35.0254C148.998 35.0254 158.247 44.9205 158.247 57.1268ZM122.922 57.1268C122.922 65.7924 129.488 72.8173 137.588 72.8173C145.688 72.8173 152.255 65.7924 152.255 57.1268C152.255 48.4612 145.688 41.4363 137.588 41.4363C129.488 41.4363 122.922 48.4612 122.922 57.1268Z" fill="white"/>
</g>
<g filter="url(#filter2_i_3875_156)">
<path d="M187.758 42.8987V35.0254H219.631V42.8987H207.283V79.4139H203.671H200.025L200.105 42.8987H187.758Z" fill="white"/>
</g>
<g filter="url(#filter3_i_3875_156)">
<path d="M162.762 79.2909L162.814 34.9023H170.051V72.6489H187.645V79.4147L162.762 79.2909Z" fill="white"/>
</g>
<g filter="url(#filter4_i_3875_156)">
<path d="M112.208 50.0833H104.913C104.705 48.7984 104.321 47.6602 103.762 46.6686C103.203 45.6631 102.507 44.8111 101.675 44.1128C100.843 43.4145 99.8936 42.8908 98.8273 42.5417C97.7739 42.1786 96.6361 41.997 95.4137 41.997C93.242 41.997 91.3174 42.5836 89.6399 43.7567C87.9624 44.9159 86.649 46.6197 85.6997 48.8683C84.7504 51.1028 84.2758 53.8332 84.2758 57.0593C84.2758 60.3413 84.7504 63.1066 85.6997 65.3551C86.662 67.5897 87.9754 69.2796 89.6399 70.4248C91.3174 71.556 93.2355 72.1216 95.3942 72.1216C96.5906 72.1216 97.7089 71.954 98.7492 71.6189C99.8026 71.2697 100.745 70.7599 101.578 70.0896C102.423 69.4192 103.132 68.5952 103.704 67.6176C104.289 66.64 104.692 65.5227 104.913 64.2658L112.208 64.3077C111.935 66.3467 111.344 68.26 110.433 70.0477C109.536 71.8353 108.359 73.4135 106.903 74.7822C105.446 76.1368 103.743 77.1983 101.792 77.9664C99.8416 78.7206 97.6081 79.4109 95.2283 79.4109C91.7172 79.4109 88.6516 78.2248 85.8948 76.479C83.1379 74.7333 80.9662 72.2124 79.3797 68.9164C77.7932 65.6205 77 61.6681 77 57.0593C77 52.4366 77.7997 48.4842 79.3992 45.2022C80.9987 41.9062 83.1769 39.3854 85.9338 37.6396C88.6906 35.8939 91.7432 34.8359 95.2283 34.8359C97.452 34.8359 99.588 35.3562 101.5 36.0265C103.411 36.6969 105.115 37.6815 106.61 38.9803C108.106 40.2652 109.335 41.8434 110.297 43.7148C111.272 45.5723 111.909 47.6951 112.208 50.0833Z" fill="white"/>
</g>
<g filter="url(#filter5_i_3875_156)">
<path fill-rule="evenodd" clip-rule="evenodd" d="M311.706 34.6973H318.65L304.818 56.7577L318.995 79.2732H312.051L301.42 62.1769L290.7 79.2723H283.93L298.005 56.6852L284.448 34.8847H291.045L301.371 51.2834L311.706 34.6973Z" fill="white"/>
</g>
<defs>
<filter id="filter0_i_3875_156" x="245.043" y="34.8809" width="45.6174" height="48.7151" filterUnits="userSpaceOnUse" color-interpolation-filters="sRGB">
<feFlood flood-opacity="0" result="BackgroundImageFix"/>
<feBlend mode="normal" in="SourceGraphic" in2="BackgroundImageFix" result="shape"/>
<feColorMatrix in="SourceAlpha" type="matrix" values="0 0 0 0 0 0 0 0 0 0 0 0 0 0 0 0 0 0 127 0" result="hardAlpha"/>
<feOffset dx="3.95336" dy="3.95336"/>
<feGaussianBlur stdDeviation="7.90671"/>
<feComposite in2="hardAlpha" operator="arithmetic" k2="-1" k3="1"/>
<feColorMatrix type="matrix" values="0 0 0 0 0 0 0 0 0 0 0 0 0 0 0 0 0 0 0.25 0"/>
<feBlend mode="normal" in2="shape" result="effect1_innerShadow_3875_156"/>
</filter>
<filter id="filter1_i_3875_156" x="116.93" y="35.0254" width="45.2698" height="48.342" filterUnits="userSpaceOnUse" color-interpolation-filters="sRGB">
<feFlood flood-opacity="0" result="BackgroundImageFix"/>
<feBlend mode="normal" in="SourceGraphic" in2="BackgroundImageFix" result="shape"/>
<feColorMatrix in="SourceAlpha" type="matrix" values="0 0 0 0 0 0 0 0 0 0 0 0 0 0 0 0 0 0 127 0" result="hardAlpha"/>
<feOffset dx="3.95336" dy="3.95336"/>
<feGaussianBlur stdDeviation="7.90671"/>
<feComposite in2="hardAlpha" operator="arithmetic" k2="-1" k3="1"/>
<feColorMatrix type="matrix" values="0 0 0 0 0 0 0 0 0 0 0 0 0 0 0 0 0 0 0.25 0"/>
<feBlend mode="normal" in2="shape" result="effect1_innerShadow_3875_156"/>
</filter>
<filter id="filter2_i_3875_156" x="187.758" y="35.0254" width="35.8244" height="48.342" filterUnits="userSpaceOnUse" color-interpolation-filters="sRGB">
<feFlood flood-opacity="0" result="BackgroundImageFix"/>
<feBlend mode="normal" in="SourceGraphic" in2="BackgroundImageFix" result="shape"/>
<feColorMatrix in="SourceAlpha" type="matrix" values="0 0 0 0 0 0 0 0 0 0 0 0 0 0 0 0 0 0 127 0" result="hardAlpha"/>
<feOffset dx="3.95336" dy="3.95336"/>
<feGaussianBlur stdDeviation="7.90671"/>
<feComposite in2="hardAlpha" operator="arithmetic" k2="-1" k3="1"/>
<feColorMatrix type="matrix" values="0 0 0 0 0 0 0 0 0 0 0 0 0 0 0 0 0 0 0.25 0"/>
<feBlend mode="normal" in2="shape" result="effect1_innerShadow_3875_156"/>
</filter>
<filter id="filter3_i_3875_156" x="162.762" y="34.9023" width="28.8362" height="48.4651" filterUnits="userSpaceOnUse" color-interpolation-filters="sRGB">
<feFlood flood-opacity="0" result="BackgroundImageFix"/>
<feBlend mode="normal" in="SourceGraphic" in2="BackgroundImageFix" result="shape"/>
<feColorMatrix in="SourceAlpha" type="matrix" values="0 0 0 0 0 0 0 0 0 0 0 0 0 0 0 0 0 0 127 0" result="hardAlpha"/>
<feOffset dx="3.95336" dy="3.95336"/>
<feGaussianBlur stdDeviation="7.90671"/>
<feComposite in2="hardAlpha" operator="arithmetic" k2="-1" k3="1"/>
<feColorMatrix type="matrix" values="0 0 0 0 0 0 0 0 0 0 0 0 0 0 0 0 0 0 0.25 0"/>
<feBlend mode="normal" in2="shape" result="effect1_innerShadow_3875_156"/>
</filter>
<filter id="filter4_i_3875_156" x="77" y="34.8359" width="39.1604" height="48.5276" filterUnits="userSpaceOnUse" color-interpolation-filters="sRGB">
<feFlood flood-opacity="0" result="BackgroundImageFix"/>
<feBlend mode="normal" in="SourceGraphic" in2="BackgroundImageFix" result="shape"/>
<feColorMatrix in="SourceAlpha" type="matrix" values="0 0 0 0 0 0 0 0 0 0 0 0 0 0 0 0 0 0 127 0" result="hardAlpha"/>
<feOffset dx="3.95336" dy="3.95336"/>
<feGaussianBlur stdDeviation="7.90671"/>
<feComposite in2="hardAlpha" operator="arithmetic" k2="-1" k3="1"/>
<feColorMatrix type="matrix" values="0 0 0 0 0 0 0 0 0 0 0 0 0 0 0 0 0 0 0.25 0"/>
<feBlend mode="normal" in2="shape" result="effect1_innerShadow_3875_156"/>
</filter>
<filter id="filter5_i_3875_156" x="283.93" y="34.6973" width="39.0198" height="48.5295" filterUnits="userSpaceOnUse" color-interpolation-filters="sRGB">
<feFlood flood-opacity="0" result="BackgroundImageFix"/>
<feBlend mode="normal" in="SourceGraphic" in2="BackgroundImageFix" result="shape"/>
<feColorMatrix in="SourceAlpha" type="matrix" values="0 0 0 0 0 0 0 0 0 0 0 0 0 0 0 0 0 0 127 0" result="hardAlpha"/>
<feOffset dx="3.95336" dy="3.95336"/>
<feGaussianBlur stdDeviation="7.90671"/>
<feComposite in2="hardAlpha" operator="arithmetic" k2="-1" k3="1"/>
<feColorMatrix type="matrix" values="0 0 0 0 0 0 0 0 0 0 0 0 0 0 0 0 0 0 0.25 0"/>
<feBlend mode="normal" in2="shape" result="effect1_innerShadow_3875_156"/>
</filter>
<linearGradient id="paint0_linear_3875_156" x1="260.658" y1="24.2869" x2="231.295" y2="35.833" gradientUnits="userSpaceOnUse">
<stop stop-color="#FCAB64"/>
<stop offset="0.755208" stop-color="#FD504F"/>
</linearGradient>
<linearGradient id="paint1_linear_3875_156" x1="274.885" y1="2.78347" x2="265.936" y2="22.5033" gradientUnits="userSpaceOnUse">
<stop stop-color="#FCC391"/>
<stop offset="1" stop-color="#1F1F21"/>
</linearGradient>
<linearGradient id="paint2_linear_3875_156" x1="239.969" y1="52.4258" x2="226.312" y2="78.7082" gradientUnits="userSpaceOnUse">
<stop stop-color="#1F1F21"/>
<stop offset="1" stop-color="#FCC391"/>
</linearGradient>
</defs>
</svg>
