<svg width="150" height="32" viewBox="0 0 150 32" fill="none" xmlns="http://www.w3.org/2000/svg">
<g clip-path="url(#clip0_3810_408)">
<path d="M6.89919 4.57138L18.9128 21.6873H19.123V13.4541C19.123 6.8827 18.9128 6.48544 17.6873 6.26875L15.9007 5.90761L15.7956 4.57138H23.9562L23.8511 5.90761L22.2052 6.26875C21.0355 6.48157 20.7109 6.86857 20.6997 13.108L20.6994 27.4285H18.2125L5.0084 8.75973H4.79817V18.2569C4.79817 24.594 5.02624 25.1898 6.10993 25.4181L6.23389 25.4422L8.02045 25.8034L8.12557 27.1396H0L0.104674 25.8034L1.75108 25.4422C2.92027 25.2299 3.24534 24.8429 3.25658 18.6031L3.25688 9.1931C3.25688 7.5323 2.76677 6.73778 1.8562 6.30487L0.209792 5.90761L0.104674 4.57138H6.89919ZM35.6516 4.57138C41.7458 4.57138 43.8823 6.70167 43.8823 9.59081C43.8823 12.5874 41.3608 14.7904 38.1385 15.296V15.4765C42.5162 15.9099 44.6878 18.2208 44.6878 21.0733C44.6878 24.9371 41.4655 27.1396 35.3718 27.1396H26.1955L26.3001 25.8034L27.6662 25.6228C28.5418 25.5149 28.8922 25.2982 28.8922 24.9732V6.70167C28.8922 6.37664 28.6819 6.23264 27.5966 6.08772L26.3001 5.90761L26.1955 4.57138H35.6516ZM55.5326 4.57161C61.1717 4.57161 63.7633 6.81024 63.7633 10.1684C63.7633 13.1654 61.837 15.2596 58.7549 16.3792L63.2727 23.6733C64.2534 25.0813 64.6388 25.4068 65.3746 25.5508L66.3899 25.8036L66.53 27.1398H60.2962L58.9301 24.4674L54.9724 17.2098L52.5205 17.2816V25.0091C52.5205 25.3702 52.7658 25.5147 53.7815 25.623L55.1822 25.8036L55.2878 27.1398H45.8657L45.9713 25.8036L47.3374 25.623C48.2125 25.5147 48.5629 25.298 48.5629 24.9734V6.7019C48.5629 6.37687 48.3526 6.23241 47.2673 6.08795L45.9713 5.90738L45.8657 4.57161H55.5326ZM34.3556 16.3067H32.8494V25.2982L35.0214 25.7312H35.6166C38.1385 25.6594 40.4148 24.1426 40.4148 21.2896C40.4148 17.9318 37.8582 16.3067 34.3556 16.3067ZM54.4468 6.08795C54.0618 6.08795 52.5205 6.12407 52.5205 6.12407V15.6208L54.8322 15.8374C57.599 15.5846 59.4202 14.0678 59.4202 10.9268C59.4202 7.67698 57.6695 5.90738 54.4468 6.08795ZM34.4958 6.01595H32.8494V14.8626L34.9513 14.8265C38.1731 14.7542 39.5747 12.6962 39.5747 10.5654C39.5747 7.85778 37.9633 6.01595 34.4958 6.01595ZM130.296 9.2858C131.819 9.2858 132.734 10.4492 132.734 11.8536C132.734 13.3676 131.617 14.5859 130.073 14.5859C128.529 14.5859 127.614 13.4006 127.614 11.9743C127.614 10.4822 128.774 9.2858 130.296 9.2858ZM118.874 8.35346L119.374 8.41929L119.364 9.50546H121.099L121.025 10.1752H119.364L119.311 12.5884C119.3 13.4447 119.673 13.697 120.195 13.697C120.46 13.697 120.823 13.6088 121.088 13.4661L121.131 13.7848C120.737 14.2561 120.12 14.5857 119.471 14.5857C118.63 14.5857 118.086 14.081 118.108 12.9724L118.161 10.2076L117.331 10.1308L117.352 9.74638L118.118 9.05518L118.874 8.35346ZM100.108 9.28553C101.13 9.28553 101.896 9.91136 101.896 10.9866C101.896 11.1626 101.875 11.4035 101.832 11.59L98.8089 11.5466V11.6668C98.82 12.8741 99.4161 13.6526 100.31 13.6526C100.789 13.6526 101.279 13.4117 101.641 12.9614L101.875 13.0931C101.524 14.048 100.768 14.5856 99.7461 14.5856C98.4687 14.5856 97.4996 13.5758 97.4996 12.1056C97.4996 10.4928 98.6177 9.28553 100.108 9.28553ZM113.414 9.45042L113.35 12.2705C113.35 13.3457 113.68 13.62 114.276 13.62C114.638 13.62 115.021 13.4335 115.213 13.2799V10.0977C115.213 9.98848 115.149 9.93317 114.808 9.90025L114.499 9.87877L114.457 9.45042H116.458V13.4779C116.458 13.6749 116.512 13.8285 116.639 13.8724L117.182 14.0484L117.15 14.3661L115.213 14.5855V13.7736H115.16C114.574 14.2564 113.999 14.5855 113.414 14.5855C113.094 14.5855 112.754 14.4534 112.509 14.202C112.232 13.9163 112.104 13.4993 112.104 12.9398L112.115 10.1087C112.115 9.96608 112.051 9.95557 111.668 9.90025L111.455 9.87877L111.423 9.45042H113.414ZM142.229 8.35346L142.729 8.41929L142.719 9.50546H144.454L144.379 10.1752H142.719L142.665 12.5884C142.654 13.4447 143.027 13.697 143.549 13.697C143.815 13.697 144.177 13.6088 144.443 13.4661L144.486 13.7848C144.091 14.2561 143.474 14.5857 142.825 14.5857C141.984 14.5857 141.441 14.081 141.463 12.9724L141.515 10.2076L140.685 10.1308L140.706 9.74638L141.473 9.05518L142.229 8.35346ZM139.696 9.28558V13.7624C139.696 13.8721 139.759 13.9384 140.101 13.9599L140.334 13.9928L140.366 14.4211H137.811L137.843 13.9928L138.088 13.9599C138.344 13.9384 138.45 13.8831 138.45 13.7519V11.1183C138.45 10.4266 138.365 10.3288 137.992 10.2296L137.779 10.1633L137.79 9.82363L139.696 9.28558ZM90.8687 7.56343V9.86743H90.1661L89.9426 8.9568C89.7297 8.17783 89.4529 8.05714 88.5055 8.04617H88.4412V13.7518C88.4412 13.8505 88.5157 13.9054 88.8355 13.9383L89.3571 13.9822L89.3891 14.421H86.0994L86.1313 13.9822L86.6742 13.9383C86.9408 13.9054 87.0361 13.8505 87.0361 13.7294V8.04617H86.994C86.0568 8.04617 85.7374 8.15589 85.5245 8.91292L85.2793 9.86743H84.5133L84.7155 7.56343H90.8687ZM108.645 7.37696L110.657 13.4661C110.742 13.697 110.912 13.8172 111.168 13.8725L111.583 13.9712L111.615 14.4211H108.368L108.4 13.9712L108.816 13.9054C109.252 13.8391 109.241 13.6421 108.943 12.742L108.751 12.139H106.58L106.441 12.5884C106.154 13.4661 106.186 13.8286 106.58 13.9054L106.931 13.9712L106.963 14.4211H104.503L104.535 13.9712L104.802 13.9054C105.27 13.7738 105.419 13.675 106.09 11.7875L107.335 8.23273V7.77148L108.645 7.37696ZM136.747 9.28553C137.216 9.28553 137.503 9.58221 137.503 10.054C137.503 10.438 137.269 10.7781 136.875 10.7781C136.555 10.7781 136.342 10.5802 136.204 10.3392C135.927 10.5258 135.533 10.8768 135.267 11.3376V13.7623C135.267 13.8725 135.331 13.9383 135.672 13.9598L136.034 13.9927L136.066 14.4211H133.383L133.415 13.9927L133.66 13.9598C133.915 13.9383 134.021 13.883 134.021 13.7518V11.1182C134.021 10.4266 133.937 10.3287 133.564 10.2295L133.351 10.1632L133.361 9.82359L135.267 9.28553V10.657H135.321C135.8 9.83502 136.193 9.28553 136.747 9.28553ZM93.2419 6.77344V10.0978H93.2951C93.8806 9.61504 94.4554 9.2859 95.0413 9.2859C95.3602 9.2859 95.7013 9.41801 95.9461 9.66944C96.2229 9.95516 96.3506 10.3725 96.3506 10.9316V13.7517C96.3506 13.8505 96.4038 13.9163 96.7871 13.9597L97.0106 13.9926L97.0425 14.421H94.4984L94.5299 13.9926L94.7432 13.9597C95.0519 13.9382 95.1047 13.8614 95.1047 13.7517V11.6009C95.1047 10.5147 94.7752 10.2518 94.1786 10.2518C93.8171 10.2518 93.4339 10.4379 93.2419 10.5915V13.7627C93.2419 13.8724 93.3062 13.9382 93.6464 13.9597L93.9231 13.9926L93.9551 14.421H91.3364L91.3684 13.9926L91.6239 13.9597C91.8793 13.9382 91.9858 13.8829 91.9858 13.7517V8.3419C91.9858 8.14487 91.9219 8.03469 91.8048 7.96932L91.2619 7.70601L91.2939 7.38738L93.2419 6.77344ZM123.345 6.77344V10.0978H123.398C123.984 9.61504 124.559 9.2859 125.145 9.2859C125.463 9.2859 125.805 9.41801 126.049 9.66944C126.326 9.95516 126.454 10.3725 126.454 10.9316V13.7517C126.454 13.8505 126.507 13.9163 126.89 13.9597L127.114 13.9926L127.146 14.421H124.602L124.633 13.9926L124.846 13.9597C125.155 13.9382 125.208 13.8614 125.208 13.7517V11.6009C125.208 10.5147 124.878 10.2518 124.282 10.2518C123.92 10.2518 123.537 10.4379 123.345 10.5915V13.7627C123.345 13.8724 123.409 13.9382 123.75 13.9597L124.026 13.9926L124.058 14.421H121.44L121.472 13.9926L121.727 13.9597C121.983 13.9382 122.089 13.8829 122.089 13.7517V8.3419C122.089 8.14487 122.025 8.03469 121.908 7.96932L121.365 7.70601L121.397 7.38738L123.345 6.77344ZM130.147 9.80192C129.477 9.80192 128.997 10.5036 128.997 11.6776C128.997 12.6216 129.115 13.3891 129.487 13.785C129.626 13.9272 129.892 14.0808 130.211 14.0808C130.871 14.0808 131.35 13.3457 131.35 12.2047C131.35 11.2831 131.191 10.4822 130.85 10.1196C130.711 9.95552 130.477 9.80192 130.147 9.80192ZM107.74 8.8357H107.644L106.739 11.601H108.592L107.74 8.8357ZM99.9057 9.76873C99.3735 9.76873 98.9047 10.24 98.82 11.1731C98.82 11.1731 100.672 11.1507 100.64 11.1507C100.693 10.2734 100.385 9.76873 99.9057 9.76873ZM138.982 6.90478C139.44 6.90478 139.749 7.2778 139.749 7.71712C139.749 8.15597 139.44 8.52855 138.982 8.52855C138.525 8.52855 138.227 8.15597 138.227 7.71712C138.227 7.2778 138.525 6.90478 138.982 6.90478ZM75.4008 0V32H74.9573V0H75.4008ZM117.672 19.9829C119.162 19.9829 120.077 21.256 120.077 22.8359C120.077 25.3269 118.012 27.3017 115.394 27.4773L115.277 27.0603C117.246 26.7751 118.353 25.4037 118.683 24.0322L118.651 24.0098C118.183 24.4048 117.618 24.6133 117.097 24.6133C115.989 24.6133 115.191 23.7355 115.191 22.4738C115.191 21.0256 116.33 19.9829 117.672 19.9829ZM125.527 20.1696L125.58 20.6304L122.238 27.4116H121.46L124.633 21.2448V21.2114H123.302C121.727 21.2114 121.674 21.2448 121.525 21.5305L121.205 22.1883H120.801L121.046 20.1696H125.527ZM86.6953 20.2465C87.1743 20.2465 87.5686 20.3233 87.8453 20.4221L88.3137 20.3014L88.3669 21.9252H87.6963L87.4089 20.9597C87.2173 20.839 86.9405 20.7402 86.6638 20.7402C86.1847 20.7402 85.8548 21.0141 85.8548 21.3981C85.8548 21.9032 86.2695 22.0454 86.9938 22.3201C87.7708 22.6159 88.5373 22.9565 88.5373 23.9329C88.5373 24.8221 87.7921 25.5572 86.4615 25.5572C85.8862 25.5572 85.2582 25.4694 84.8222 25.2939L84.769 23.8342H85.4924L85.7483 24.8331C85.9608 24.9537 86.2593 25.074 86.5573 25.074C87.0683 25.074 87.4941 24.7562 87.4941 24.284C87.4941 23.8013 86.9086 23.6152 86.3018 23.3844C85.5137 23.0886 84.8111 22.759 84.8111 21.7825C84.8111 20.9377 85.5035 20.2465 86.6953 20.2465ZM101.194 20.257C102.248 20.257 102.844 20.7508 102.844 21.3766C102.844 21.8813 102.503 22.0568 102.162 22.0568C101.662 22.0568 101.375 21.4644 101.502 20.8939V20.8719C101.407 20.8061 101.236 20.7622 101.066 20.7622C100.395 20.7622 99.8524 21.3766 99.8524 22.5615C99.8524 23.7688 100.459 24.6241 101.343 24.6241C101.832 24.6241 102.322 24.3832 102.684 23.9329L102.918 24.0646C102.567 25.0196 101.811 25.5572 100.779 25.5572C99.5118 25.5572 98.5325 24.5473 98.5325 23.0772C98.5325 21.4424 99.6927 20.257 101.194 20.257ZM106.122 20.257C107.144 20.257 107.91 20.8828 107.91 21.958C107.91 22.134 107.889 22.3749 107.847 22.5614L104.823 22.518V22.6382C104.834 23.8455 105.43 24.624 106.324 24.624C106.803 24.624 107.293 24.3831 107.655 23.9328L107.889 24.0645C107.538 25.0195 106.782 25.5571 105.76 25.5571C104.483 25.5571 103.514 24.5472 103.514 23.0771C103.514 21.4643 104.632 20.257 106.122 20.257ZM128.721 20.0051C130.264 20.0051 131.329 21.1132 131.329 22.7813C131.329 24.4375 130.243 25.5571 128.7 25.5571C127.166 25.5571 126.102 24.4599 126.102 22.8028C126.102 21.1347 127.188 20.0051 128.721 20.0051ZM91.1345 20.257V24.7338C91.1345 24.8435 91.1983 24.9098 91.5394 24.9313L91.7732 24.9642L91.8051 25.3925H89.2499L89.2823 24.9642L89.5266 24.9313C89.7826 24.9098 89.889 24.8545 89.889 24.7233V22.0897C89.889 21.398 89.8034 21.3002 89.4313 21.201L89.2184 21.1347L89.229 20.7951L91.1345 20.257ZM96.0524 20.2573C96.3718 20.2573 96.7124 20.3894 96.9572 20.6409C97.234 20.9266 97.3617 21.344 97.3617 21.903V24.7232C97.3617 24.8219 97.415 24.8877 97.7982 24.9312L98.0222 24.9641L98.0537 25.3924H95.5202L95.5517 24.9641L95.7539 24.9312C96.0631 24.9097 96.1163 24.8329 96.1163 24.7232V22.5723C96.1163 21.4861 95.7863 21.2233 95.1902 21.2233C94.8389 21.2233 94.4557 21.4093 94.2534 21.5629V24.7341C94.2534 24.8438 94.3169 24.9097 94.658 24.9312L94.9454 24.9641L94.9769 25.3924H92.3582L92.3902 24.9641L92.6461 24.9312C92.9016 24.9097 93.0076 24.8544 93.0076 24.7232V22.0896C93.0076 21.3984 92.9229 21.3001 92.5498 21.2009L92.3369 21.135L92.3476 20.7949L94.2534 20.2573V21.0692H94.3067C94.8921 20.5865 95.467 20.2573 96.0524 20.2573ZM113.477 19.9936V24.5586C113.477 24.6793 113.541 24.7776 113.722 24.8109L114.393 24.9312L114.425 25.3924H111.327L111.359 24.9312L111.987 24.8109C112.168 24.767 112.232 24.6793 112.232 24.5586V21.0253L111.093 20.9156L111.125 20.543L113.477 19.9936ZM128.7 20.8938C127.677 20.8938 126.986 21.6727 126.986 22.7813C126.986 23.8894 127.699 24.6794 128.721 24.6794C129.743 24.6794 130.445 23.9114 130.445 22.8028C130.445 21.6947 129.722 20.8938 128.7 20.8938ZM117.459 20.5429C116.82 20.5429 116.49 21.1678 116.49 22.0784C116.49 23.1984 117.044 23.8562 117.757 23.8562C118.13 23.8562 118.459 23.6807 118.651 23.4942C118.694 23.3845 118.725 23.187 118.725 22.8249C118.725 21.7278 118.279 20.5429 117.459 20.5429ZM105.92 20.7402C105.388 20.7402 104.919 21.2115 104.834 22.1445C104.834 22.1445 106.276 22.1271 106.594 22.123L106.654 22.1221C106.708 21.2448 106.399 20.7402 105.92 20.7402ZM90.4213 17.8762C90.879 17.8762 91.1881 18.2492 91.1881 18.6885C91.1881 19.1274 90.879 19.5 90.4213 19.5C89.9635 19.5 89.6655 19.1274 89.6655 18.6885C89.6655 18.2492 89.9635 17.8762 90.4213 17.8762ZM147.073 9.45052L147.04 9.8784L146.721 9.96617C146.529 10.0101 146.455 10.1422 146.551 10.3831L147.679 13.1264L148.541 10.5915C148.68 10.1966 148.616 10.032 148.35 9.98857L147.999 9.86743L147.966 9.45052H150L149.968 9.86743L149.648 9.93326C149.383 9.97714 149.266 10.1632 149.095 10.5915L147.817 14.037L147.211 15.8802C146.891 16.8462 146.508 17.2955 145.88 17.2955C145.422 17.2955 145.071 16.9998 145.071 16.6043C145.071 16.2642 145.273 15.9465 145.667 15.9465C146.029 15.9465 146.253 16.1769 146.348 16.4073C146.519 16.3305 146.646 16.1216 146.806 15.6064L147.083 14.7721V14.7063L145.188 10.3611C145.092 10.1307 144.996 10.0539 144.72 9.97714L144.474 9.8784L144.432 9.45052H147.073Z" fill="white"/>
</g>
<defs>
<clipPath id="clip0_3810_408">
<rect width="150" height="32" fill="white"/>
</clipPath>
</defs>
</svg>
