<svg width="161" height="14" viewBox="0 0 161 14" fill="none" xmlns="http://www.w3.org/2000/svg">
<g clip-path="url(#clip0_3810_424)">
<path fill-rule="evenodd" clip-rule="evenodd" d="M145.351 0H143.594V10.7422H145.351V0ZM61.7201 10.7191H65.6208V0.250963H61.7201V10.7191ZM93.5996 5.35272L91.7859 5.34206L91.7808 5.34203L91.7795 5.34202L91.7782 5.34201H91.7769L91.7756 5.342C91.1059 5.33811 90.4378 5.33422 89.7681 5.33017C89.7641 5.30855 89.7608 5.28822 89.7577 5.26882C89.7515 5.23073 89.746 5.19628 89.7365 5.16286C89.6912 5.00148 89.5928 4.87452 89.4657 4.76773C89.2606 4.59626 89.0191 4.49778 88.7656 4.42361C88.35 4.30199 87.9224 4.25809 87.4924 4.24266C86.8579 4.21952 86.2252 4.23851 85.5972 4.34233C85.3694 4.3803 85.1428 4.42836 84.9341 4.53041C84.8381 4.57728 84.7457 4.63839 84.6646 4.7078C84.5733 4.78612 84.5495 4.89173 84.5715 5.01454C84.6109 5.23465 84.7331 5.37882 84.9389 5.46188C85.2054 5.56927 85.4851 5.62563 85.7672 5.66242C86.4447 5.75082 87.1221 5.83388 87.8013 5.91041L87.9695 5.92923C88.8396 6.02651 89.7097 6.12377 90.5708 6.28597C91.2512 6.41412 91.9251 6.56838 92.5697 6.82765C92.8941 6.95817 93.2036 7.1154 93.4744 7.33907C93.7165 7.53901 93.9026 7.77811 93.9849 8.08484C94.0982 8.50549 94.0177 8.89528 93.7791 9.25542C93.6121 9.50697 93.3891 9.70335 93.1386 9.86948C92.7015 10.1602 92.2173 10.3459 91.7158 10.4907C91.1105 10.6651 90.4921 10.7725 89.8665 10.8472C88.7316 10.9825 87.592 11.0199 86.4506 10.9973C85.5221 10.9789 84.5972 10.9113 83.6836 10.7363C83.0061 10.6063 82.3454 10.4248 81.7257 10.1157C81.359 9.93296 81.0209 9.70988 80.7388 9.41086C80.5128 9.17117 80.338 8.90122 80.2569 8.57846C80.2443 8.5276 80.2363 8.47543 80.2275 8.41759C80.2231 8.3884 80.2184 8.35776 80.2128 8.32513C81.5421 8.31445 82.8528 8.31801 84.166 8.33877C84.1706 8.34863 84.1753 8.35769 84.1797 8.36628C84.1892 8.38459 84.1975 8.40072 84.2012 8.41768C84.2584 8.66212 84.4028 8.84664 84.6025 8.9914C84.8667 9.18363 85.1703 9.28508 85.4845 9.36043C85.9181 9.46366 86.3594 9.50401 86.803 9.51706C87.3916 9.53486 87.9802 9.5218 88.5664 9.46366C88.8998 9.43103 89.2326 9.38713 89.5504 9.27559C89.681 9.22931 89.8128 9.17176 89.9261 9.09345C90.1837 8.91664 90.1951 8.57728 89.953 8.37912C89.8677 8.30911 89.7639 8.24919 89.6584 8.21834L89.6263 8.20881C89.3732 8.13354 89.1178 8.0576 88.8581 8.01661C88.0804 7.89558 87.301 7.78938 86.521 7.68437C86.282 7.65228 86.0427 7.62209 85.8034 7.59189C85.1048 7.50373 84.4062 7.41556 83.7146 7.28033C83.0836 7.15752 82.4563 7.01988 81.8635 6.76535C81.6655 6.68051 81.4741 6.57431 81.2928 6.45684C80.8867 6.1946 80.7275 5.79294 80.6965 5.33195C80.6839 5.14388 80.7501 4.96885 80.8312 4.80154C80.9857 4.48235 81.2206 4.22961 81.4979 4.01305C81.9231 3.68081 82.4074 3.46129 82.9161 3.2922C83.5315 3.08692 84.1654 2.96529 84.8083 2.88164C85.8525 2.74577 86.902 2.72264 87.9528 2.75349C88.9404 2.78197 89.9214 2.87808 90.8815 3.12608C91.3735 3.25304 91.8499 3.42035 92.2954 3.66657C92.618 3.84515 92.9126 4.05933 93.1547 4.33937C93.3832 4.60338 93.546 4.89944 93.5943 5.25008C93.5966 5.2669 93.5974 5.28396 93.5985 5.30683C93.5991 5.31938 93.5998 5.33398 93.6008 5.35094L93.5996 5.35272ZM1.00119 8.33521C1.07191 8.3337 1.14263 8.33169 1.21337 8.32969C1.36393 8.32543 1.51459 8.32116 1.66552 8.32157C2.52732 8.32403 3.38953 8.32855 4.25146 8.33308H4.25263L4.2538 8.33309H4.25496L4.25611 8.3331L4.25726 8.33311H4.25903L4.77547 8.33581C4.82173 8.33581 4.86828 8.33894 4.91154 8.34185C4.9307 8.34314 4.94934 8.34439 4.9669 8.3453C4.9714 8.35095 4.97486 8.35492 4.97744 8.35788C4.98134 8.36235 4.98324 8.36452 4.9836 8.36666C5.07424 8.76773 5.35035 9.00386 5.70637 9.1682C6.02124 9.31356 6.3558 9.3895 6.69691 9.43934C7.38986 9.5396 8.0864 9.53664 8.78353 9.50401C9.20872 9.48443 9.63272 9.4512 10.049 9.35806C10.198 9.32483 10.3453 9.27677 10.4891 9.22456C10.5725 9.19371 10.6542 9.14862 10.7264 9.09641C10.981 8.9119 10.9918 8.56423 10.7413 8.3714C10.6435 8.29606 10.5254 8.23317 10.4062 8.20113C10.1014 8.11807 9.79433 8.03441 9.48304 7.98814C8.61536 7.8588 7.74528 7.74429 6.87521 7.63038C6.76533 7.61599 6.65542 7.60178 6.54551 7.58757C5.77619 7.4881 5.00685 7.38861 4.24711 7.22872C3.70682 7.1154 3.17011 6.98725 2.66202 6.76654C2.47238 6.68407 2.28751 6.58499 2.11338 6.47345C1.79791 6.27173 1.61782 5.97983 1.53254 5.61317C1.46038 5.30407 1.51167 5.0264 1.6536 4.75467C1.79135 4.49125 1.98457 4.27292 2.21178 4.08306C2.6155 3.74548 3.08125 3.51943 3.57383 3.34263C4.16362 3.13142 4.77309 3.00208 5.3915 2.91249C6.52397 2.74815 7.66418 2.72086 8.80559 2.75645C9.77525 2.78671 10.7377 2.88401 11.68 3.12726C12.1362 3.24533 12.5799 3.39781 12.9985 3.61673C13.3742 3.81311 13.7159 4.0534 13.9884 4.38208C14.1781 4.6111 14.3188 4.86503 14.3772 5.15871C14.3854 5.1994 14.3883 5.24149 14.3914 5.28728C14.3928 5.30824 14.3943 5.32998 14.3963 5.35272L12.5958 5.34213L12.594 5.34212C11.9175 5.33819 11.2427 5.33426 10.5666 5.33017C10.5326 4.97004 10.3119 4.76239 10.0257 4.60754C9.72754 4.44616 9.40313 4.36429 9.07097 4.31682C8.17704 4.18986 7.28371 4.20884 6.39277 4.34352C6.16914 4.37734 5.94789 4.42836 5.74215 4.52685C5.64972 4.57135 5.56027 4.62771 5.47976 4.69119C5.38494 4.76595 5.35274 4.87096 5.37003 4.99318C5.39985 5.20677 5.50779 5.35865 5.70757 5.44764C5.92464 5.54376 6.15363 5.59953 6.38621 5.63156C7.02669 5.72115 7.66776 5.80718 8.31062 5.87956C8.43805 5.89384 8.56551 5.90792 8.69296 5.922C9.63556 6.02614 10.5781 6.13027 11.51 6.31267C12.1409 6.43607 12.7647 6.5844 13.3629 6.82468C13.6616 6.94453 13.9485 7.08751 14.2049 7.28389C14.4613 7.47968 14.6701 7.71463 14.7667 8.0267C14.905 8.47226 14.8293 8.88876 14.5669 9.27262C14.3963 9.5218 14.1721 9.71581 13.9204 9.88134C13.5125 10.1495 13.0641 10.3263 12.5989 10.4663C11.9692 10.6556 11.3239 10.7689 10.6721 10.8472C9.5552 10.9807 8.43407 11.0181 7.31055 10.9997C6.45896 10.9855 5.61036 10.9291 4.76951 10.7885C4.03123 10.6651 3.30846 10.4871 2.62803 10.1673C2.29109 10.0089 1.97443 9.81845 1.69773 9.56749C1.38763 9.28686 1.14551 8.96233 1.04711 8.54702C1.04266 8.52808 1.02995 8.51133 1.01721 8.49454C1.01119 8.48661 1.00516 8.47867 1 8.47049V8.33581L1.00119 8.33521ZM51.8261 14C51.7698 13.9952 51.7136 13.99 51.6574 13.9849C51.5249 13.9727 51.3922 13.9604 51.2595 13.9537C50.6352 13.9229 50.0144 13.8618 49.3983 13.7568C48.6696 13.6328 47.9564 13.4548 47.2837 13.1397C46.9754 12.9956 46.685 12.8229 46.4243 12.6034C46.1548 12.3767 45.9342 12.1127 45.7916 11.7888C45.7801 11.7623 45.7699 11.7349 45.7585 11.7045C45.7528 11.6894 45.7469 11.6734 45.7403 11.6565H50.0633C50.0668 11.663 50.0705 11.6695 50.0743 11.6761C50.0832 11.6916 50.0926 11.7077 50.0996 11.7247C50.198 11.9519 50.371 12.1015 50.597 12.197C50.8832 12.318 51.1862 12.3708 51.4915 12.4076C52.0902 12.4794 52.692 12.4996 53.2943 12.4889C53.8119 12.48 54.323 12.4177 54.8156 12.2492C55.1352 12.14 55.431 11.9875 55.682 11.7591C55.9355 11.5283 56.112 11.2519 56.1848 10.9149C56.1925 10.8799 56.2003 10.8443 56.2003 10.8087C56.2012 10.4789 56.2011 10.1492 56.2009 9.81377V9.47434C56.1921 9.47861 56.1839 9.48204 56.1763 9.4852C56.1617 9.49129 56.1495 9.4964 56.14 9.5046C55.5067 10.0635 54.7523 10.3702 53.9359 10.5488C53.1667 10.7167 52.3866 10.7606 51.6018 10.7505C50.9357 10.7422 50.2732 10.6924 49.6166 10.5749C48.8288 10.4343 48.0685 10.2106 47.3636 9.82438C46.8263 9.52952 46.3552 9.15633 45.9938 8.65797C45.5531 8.05043 45.3563 7.3717 45.4201 6.62593C45.4785 5.94127 45.7612 5.34619 46.1977 4.81994C46.673 4.24741 47.2694 3.8315 47.9385 3.51409C48.5962 3.20202 49.2904 3.00623 50.0078 2.88876C50.6435 2.78493 51.284 2.74221 51.928 2.75467C52.8792 2.77366 53.8125 2.90003 54.7082 3.23465C55.2372 3.43222 55.7315 3.68971 56.1567 4.06586C56.1604 4.06911 56.1653 4.07104 56.1731 4.07407L56.1795 4.07659C56.1831 4.07804 56.1872 4.07976 56.1919 4.08188C56.2083 3.99206 56.2061 3.90365 56.2039 3.81587C56.2029 3.77608 56.2019 3.73643 56.2027 3.69683C56.2047 3.60367 56.2042 3.51023 56.2037 3.41689C56.2035 3.37541 56.2033 3.3336 56.2033 3.2922V2.89588H60.0014L60.003 2.93683C60.0046 2.97388 60.0062 3.01198 60.0062 3.04954V6.32691C60.0062 6.75486 60.0057 7.18287 60.0053 7.61089C60.0041 8.65745 60.003 9.70413 60.0085 10.7505C60.0115 11.3509 59.7974 11.8546 59.3872 12.2836C59.0389 12.6479 58.6155 12.9048 58.1593 13.1112C57.5635 13.3812 56.9368 13.5527 56.2963 13.6784C55.518 13.8309 54.7315 13.914 53.9395 13.9519C53.763 13.9603 53.5871 13.9709 53.4106 13.9822C53.3893 13.9834 53.3683 13.9888 53.3474 13.9942C53.3378 13.9967 53.3283 13.9991 53.3187 14.0012H51.8249L51.8261 14ZM52.8864 9.18007C52.9563 9.17613 53.0262 9.1729 53.0962 9.16968C53.2475 9.1627 53.3993 9.1557 53.5501 9.1415C54.0075 9.09938 54.4548 9.0092 54.8746 8.81875C55.6492 8.46692 56.1299 7.89499 56.2104 7.03056C56.2784 6.29665 56.0142 5.70098 55.4447 5.23762C55.1352 4.98606 54.7768 4.82409 54.3933 4.72264C53.4505 4.47345 52.4981 4.45565 51.5416 4.63305C51.1331 4.70899 50.752 4.85553 50.4026 5.08395C49.3572 5.76743 49.0399 7.43756 50.2368 8.42302C50.5159 8.65263 50.832 8.814 51.1737 8.92732C51.7289 9.11184 52.3037 9.17117 52.8864 9.18007ZM160.951 7.11695L160.982 7.11982L161.001 7.12133L161 7.12074V6.66212C160.997 6.65091 160.994 6.63979 160.991 6.62868C160.985 6.60981 160.98 6.59099 160.976 6.57194C160.973 6.55435 160.969 6.5367 160.966 6.51903C160.962 6.49398 160.957 6.46886 160.953 6.44374V6.44212C160.938 6.35284 160.923 6.26342 160.898 6.1768C160.659 5.33848 160.17 4.66865 159.486 4.13409C158.865 3.64877 158.156 3.33848 157.4 3.12904C156.544 2.89232 155.67 2.79264 154.785 2.77307C153.681 2.74874 152.586 2.81044 151.506 3.05073C150.765 3.21507 150.054 3.46129 149.4 3.85346C148.822 4.20053 148.33 4.63779 147.973 5.2127C147.586 5.83744 147.403 6.51083 147.507 7.24652C147.631 8.13053 148.044 8.85909 148.719 9.4423C149.196 9.85464 149.746 10.1436 150.336 10.3607C151.282 10.709 152.269 10.8579 153.27 10.9214C154.062 10.9712 154.853 10.9671 155.645 10.9024C156.349 10.8449 157.046 10.7381 157.727 10.5458C158.428 10.3483 159.091 10.0688 159.685 9.64046C160.16 9.29754 160.553 8.88105 160.825 8.35895C160.839 8.33193 160.851 8.30414 160.864 8.27404C160.871 8.25853 160.878 8.2424 160.886 8.22545H159.113C158.995 8.53219 158.808 8.78315 158.579 9.00445C158.226 9.345 157.81 9.58529 157.357 9.76802C156.698 10.0344 156.007 10.1661 155.301 10.2302C154.414 10.3103 153.529 10.3014 152.65 10.143C152.037 10.0326 151.445 9.85583 150.898 9.55325C149.988 9.05073 149.417 8.30674 149.252 7.27381C149.247 7.23865 149.244 7.20291 149.241 7.16378C149.24 7.14686 149.238 7.12906 149.237 7.11065H149.404H160.853C160.886 7.11065 160.919 7.1138 160.951 7.11695ZM159.193 6.29292L159.198 6.32097L159.196 6.32157H149.245C149.246 6.30976 149.247 6.29844 149.248 6.28751C149.25 6.2666 149.252 6.24713 149.256 6.22842C149.347 5.83447 149.539 5.49155 149.794 5.18125C150.213 4.6728 150.746 4.31504 151.344 4.04984C151.936 3.7876 152.558 3.6369 153.199 3.55918C153.863 3.47849 154.527 3.47434 155.191 3.53723C155.958 3.60961 156.7 3.78226 157.392 4.12934C157.891 4.37971 158.329 4.70662 158.676 5.14744C158.91 5.44468 159.083 5.77336 159.168 6.14358C159.176 6.17843 159.181 6.21354 159.187 6.25457L159.193 6.29292ZM70.7261 5.3984H66.9608C66.9653 5.37512 66.9691 5.35314 66.9726 5.33217C66.9803 5.28695 66.9873 5.24624 66.9995 5.20736C67.1916 4.6022 67.5303 4.11391 68.1028 3.79769C68.7576 3.43578 69.4553 3.19905 70.1858 3.04717C71.1382 2.8496 72.1031 2.77662 73.0733 2.78196C73.7746 2.78552 74.4771 2.79858 75.1772 2.83833C76.1052 2.89113 77.02 3.04123 77.9091 3.31949C78.3212 3.44824 78.7094 3.63038 79.0541 3.89439C79.3123 4.09196 79.5228 4.32928 79.657 4.62889C79.7017 4.72857 79.7286 4.83061 79.7268 4.94156C79.7208 5.34619 79.7178 5.75082 79.7154 6.15544C79.7139 6.37694 79.7119 6.59845 79.7098 6.81995C79.704 7.44805 79.6982 8.07614 79.7035 8.70424C79.7056 8.95793 79.7278 9.21134 79.75 9.46465C79.7599 9.57864 79.7699 9.69261 79.7781 9.80659C79.7793 9.82023 79.7805 9.83328 79.7828 9.84693C79.8389 10.1988 80.0142 10.385 80.3661 10.4657C80.401 10.4736 80.436 10.4806 80.4739 10.4882L80.5354 10.5007V10.7042L80.502 10.7066C80.4745 10.7087 80.4465 10.7108 80.4185 10.7108L79.6952 10.7107C78.6099 10.7105 77.5243 10.7103 76.4391 10.7137C76.3354 10.7137 76.2793 10.6799 76.2483 10.5862C76.1958 10.4284 76.1415 10.2711 76.0855 10.1145C76.0616 10.0469 76.033 9.98042 76.0044 9.91457C75.9787 9.85583 75.9334 9.83447 75.872 9.85939L75.8366 9.87351C75.7518 9.90729 75.6672 9.941 75.584 9.97745C75.4771 10.024 75.3708 10.0718 75.2646 10.1197C75.0497 10.2165 74.8347 10.3134 74.6149 10.3987C73.9416 10.6597 73.2409 10.814 72.5247 10.903C71.8449 10.9872 71.1626 11.0169 70.4786 10.9789C69.5919 10.9297 68.7277 10.7707 67.909 10.4153C67.5458 10.2575 67.2077 10.0605 66.922 9.78285C66.7043 9.57164 66.532 9.32957 66.4712 9.02877C66.3775 8.56482 66.473 8.13527 66.7467 7.74785C66.9345 7.48146 67.1862 7.28449 67.4665 7.12192C67.8523 6.89825 68.2692 6.75171 68.6985 6.63661C69.2979 6.47523 69.9097 6.37971 70.5257 6.30911C71.2182 6.23014 71.9132 6.18772 72.6083 6.14529C72.7487 6.13672 72.8893 6.12813 73.0298 6.11925L73.182 6.10965C73.7362 6.07491 74.2911 6.04013 74.8379 5.93414C75.0103 5.90092 75.1802 5.85049 75.3478 5.79769C75.4202 5.77501 75.4884 5.73777 75.5559 5.70089L75.5917 5.6814C75.9525 5.48858 75.9805 4.90122 75.5726 4.69534C75.3597 4.58796 75.1361 4.52032 74.9041 4.48176C74.2135 4.36725 73.5176 4.35123 72.8199 4.38742C72.4394 4.40759 72.0613 4.44913 71.6964 4.56126C71.5419 4.60872 71.3887 4.66864 71.2455 4.74281C70.9784 4.88104 70.7762 5.07921 70.7285 5.39899L70.7261 5.3984ZM75.8356 6.89884C75.824 6.90178 75.8142 6.90369 75.8056 6.90535C75.7916 6.90804 75.781 6.91009 75.7718 6.91486C75.5941 7.01038 75.4015 7.05785 75.2059 7.09522C74.7115 7.18971 74.2115 7.24052 73.7115 7.29131C73.5679 7.30589 73.4243 7.32048 73.2809 7.3361L73.2268 7.34199C72.782 7.39044 72.3368 7.43893 71.8938 7.50222C71.5711 7.5485 71.2527 7.62444 70.9581 7.76743C70.8257 7.8315 70.6969 7.91219 70.5836 8.00593C70.314 8.22842 70.2192 8.78493 70.5848 9.09641C70.7351 9.22456 70.9026 9.31771 71.0863 9.38594C71.4119 9.50697 71.7518 9.55681 72.0965 9.57105C72.7513 9.59834 73.3983 9.53426 74.0358 9.38357C74.4294 9.29042 74.8069 9.15337 75.1462 8.92851C75.352 8.79205 75.5309 8.62889 75.6627 8.41887C75.7778 8.23613 75.8428 8.03916 75.8374 7.81964C75.8337 7.65416 75.8346 7.4884 75.8354 7.32255C75.8358 7.24995 75.8362 7.17733 75.8362 7.10472V6.89706L75.8356 6.89884ZM19.5863 2.93681H15.601V2.93563C15.6001 2.95313 15.5988 2.9697 15.5976 2.98566C15.5956 3.01188 15.5938 3.03647 15.5938 3.06081C15.5938 3.5348 15.5936 4.00878 15.5934 4.48277C15.5929 5.66764 15.5924 6.85251 15.595 8.03738C15.5962 8.68882 15.8353 9.24651 16.3011 9.70691C16.4949 9.89854 16.7137 10.057 16.9505 10.191C17.3268 10.404 17.7299 10.5494 18.148 10.6538C18.7914 10.8146 19.4468 10.8846 20.1093 10.8994C21.1482 10.9226 22.1822 10.8757 23.2008 10.6532C23.9761 10.4841 24.7173 10.232 25.3387 9.71522C25.384 9.67725 25.4305 9.66004 25.4997 9.69505V10.706C25.6452 10.7351 29.2191 10.7309 29.3205 10.7036V2.93681H25.2821V3.10175L25.2818 4.31512C25.2814 5.39411 25.2811 6.47324 25.2833 7.55206C25.2838 7.87659 25.1795 8.16019 24.9797 8.41175C24.7847 8.65737 24.5313 8.82765 24.2474 8.9552C23.8639 9.12785 23.4572 9.21269 23.041 9.24948C22.3439 9.31118 21.6479 9.28923 20.955 9.19727C20.6991 9.16286 20.4487 9.10412 20.2125 8.99436C19.9143 8.85553 19.7205 8.62949 19.6472 8.31207C19.6132 8.16434 19.5887 8.01068 19.5887 7.85939C19.5855 6.63935 19.5858 5.41966 19.5862 4.19978V4.1974L19.5863 3.09878V2.93681ZM104.134 5.3327C105.278 5.33917 106.432 5.3457 107.596 5.35271L107.597 5.35509C107.597 5.3384 107.597 5.32423 107.597 5.31168C107.598 5.29038 107.598 5.2736 107.597 5.25719C107.594 5.22575 107.589 5.1949 107.583 5.16405C107.525 4.8757 107.389 4.62415 107.204 4.39751C106.979 4.12103 106.702 3.90626 106.396 3.72649C105.925 3.44942 105.415 3.26787 104.888 3.13141C103.915 2.87986 102.92 2.78434 101.919 2.75705C100.96 2.73094 100 2.74933 99.0448 2.8585C98.4103 2.93088 97.7824 3.03767 97.1693 3.21804C96.638 3.37407 96.1275 3.57995 95.6683 3.89439C95.3707 4.09789 95.1107 4.33877 94.9205 4.64729C94.7267 4.96233 94.6444 5.2922 94.747 5.6636C94.8305 5.96559 94.976 6.21774 95.2246 6.41056C95.4191 6.56126 95.6343 6.67458 95.8604 6.76891C96.4561 7.01691 97.0817 7.1593 97.712 7.28271C98.3661 7.41058 99.0268 7.49573 99.6876 7.58089C99.8208 7.59806 99.9541 7.61523 100.087 7.63275L100.194 7.6468C101.033 7.75719 101.872 7.86765 102.708 7.99229C103.007 8.03672 103.301 8.11764 103.593 8.19792L103.617 8.20469C103.732 8.23613 103.846 8.29665 103.941 8.36903C104.196 8.56422 104.189 8.92139 103.924 9.10116C103.81 9.17829 103.678 9.23465 103.547 9.28033C103.229 9.39128 102.896 9.434 102.563 9.46663C101.99 9.52358 101.415 9.53545 100.84 9.52062C100.424 9.50994 100.009 9.47434 99.6006 9.38831C99.3072 9.32661 99.0216 9.24236 98.7598 9.09344C98.4777 8.93266 98.2666 8.71552 98.195 8.38802C98.1934 8.37964 98.1881 8.37234 98.1831 8.36557C98.1807 8.36227 98.1783 8.35909 98.1766 8.35598C97.9297 8.31267 94.3605 8.30851 94.2144 8.35716C94.2233 8.39427 94.2312 8.43192 94.2391 8.46972C94.2558 8.54913 94.2727 8.62928 94.2985 8.70602C94.4136 9.04657 94.6289 9.32186 94.8937 9.56155C95.174 9.81489 95.4936 10.0089 95.8347 10.1691C96.5151 10.4883 97.2379 10.6663 97.9762 10.7897C98.826 10.9315 99.6835 10.9872 100.544 11.0009C101.658 11.0181 102.771 10.9807 103.878 10.8478C104.53 10.7695 105.175 10.6562 105.805 10.4669C106.27 10.3275 106.718 10.1501 107.126 9.88193C107.377 9.7164 107.601 9.5224 107.772 9.27321C108.034 8.88994 108.109 8.47345 107.971 8.02789C107.874 7.71581 107.665 7.48087 107.409 7.28508C107.152 7.0887 106.866 6.94571 106.567 6.82587C105.922 6.56778 105.248 6.41412 104.568 6.28597C103.71 6.12455 102.844 6.02829 101.977 5.93206C101.828 5.91546 101.678 5.89886 101.529 5.88193C100.891 5.80955 100.255 5.72412 99.6185 5.6369C99.377 5.60368 99.1385 5.54791 98.913 5.44883C98.7127 5.36102 98.6047 5.20914 98.5743 4.99555C98.557 4.87333 98.588 4.76832 98.6829 4.69297C98.7634 4.62889 98.8522 4.57253 98.9447 4.52803C99.1498 4.42955 99.3716 4.38149 99.5947 4.34411C100.227 4.2385 100.864 4.22071 101.503 4.24325C101.86 4.25571 102.216 4.29131 102.565 4.3714C102.835 4.43311 103.097 4.51735 103.332 4.66805C103.566 4.81815 103.737 5.01216 103.767 5.30169C103.767 5.30608 103.771 5.31003 103.777 5.31616C103.781 5.31997 103.786 5.32463 103.791 5.33076L104.134 5.3327ZM31.0953 2.93681H34.7944V4.06467C34.8101 4.06585 34.8252 4.06758 34.8399 4.06926C34.9062 4.07684 34.9632 4.08336 35.0198 4.03382C35.4581 3.65055 35.9716 3.39959 36.5155 3.20558C37.1279 2.98665 37.7606 2.86443 38.4065 2.80036C39.1841 2.72382 39.9618 2.73806 40.7382 2.80985C41.52 2.88223 42.2875 3.02462 43.0198 3.3189C43.4164 3.4779 43.7897 3.67784 44.1111 3.96262C44.3652 4.18748 44.5727 4.44616 44.658 4.78137C44.6842 4.8846 44.7009 4.99377 44.7009 5.09997C44.7029 6.61393 44.7028 8.12789 44.7027 9.64219V10.5488V10.7019H40.7418L40.7401 10.6589C40.7386 10.6219 40.737 10.5841 40.737 10.547C40.737 10.1103 40.7367 9.67365 40.7365 9.23701C40.7358 8.07328 40.7351 6.90938 40.7394 5.74548C40.7406 5.44764 40.6273 5.21507 40.4174 5.0175C40.2301 4.84129 40.0053 4.72679 39.7656 4.63957C39.4233 4.51498 39.0666 4.45624 38.7052 4.42421C38.2806 4.38683 37.8555 4.38505 37.4303 4.42302C36.9908 4.46218 36.5614 4.54405 36.1553 4.72145C35.646 4.94393 35.259 5.28983 35.0461 5.81074C35.0049 5.91219 34.9846 6.01424 34.9846 6.12459C34.9866 7.35028 34.9865 8.57598 34.9865 9.80132L34.9864 10.5346V10.7013H31.0959C31.069 10.604 31.0648 3.07624 31.0935 2.93622L31.0953 2.93681ZM108.471 8.34174H108.473L108.483 8.38491L108.491 8.42016V8.42226C108.505 8.48253 108.517 8.53981 108.534 8.59567C108.679 9.07446 108.98 9.4429 109.371 9.74548C109.794 10.0724 110.273 10.2931 110.777 10.4616C111.771 10.795 112.801 10.9261 113.844 10.9736C114.6 11.0074 115.355 10.9932 116.11 10.9273C116.833 10.8644 117.546 10.7553 118.248 10.5696C118.769 10.4313 119.276 10.2539 119.744 9.98102C119.979 9.84337 120.195 9.68259 120.378 9.47909C120.846 8.95936 120.743 8.34411 120.44 7.92999C120.3 7.73776 120.121 7.58766 119.921 7.4607C119.653 7.28983 119.362 7.16642 119.062 7.06497C118.378 6.83418 117.67 6.70543 116.957 6.6111C116.389 6.53597 115.82 6.47137 115.251 6.40676C115.056 6.38464 114.861 6.36251 114.667 6.33996C113.943 6.2563 113.223 6.14951 112.514 5.9822C112.104 5.8849 111.697 5.77514 111.323 5.57935C111.176 5.50282 111.037 5.40671 110.91 5.29991C110.724 5.14269 110.681 4.93266 110.738 4.6995C110.801 4.44557 110.963 4.26283 111.17 4.11451C111.392 3.95491 111.643 3.85286 111.904 3.77396C112.475 3.60071 113.064 3.53664 113.657 3.50994C114.408 3.47612 115.159 3.47968 115.906 3.58469C116.351 3.64699 116.788 3.74132 117.205 3.91101C117.513 4.03679 117.798 4.19875 118.033 4.43845C118.19 4.59864 118.31 4.78256 118.369 5.0003C118.383 5.05184 118.392 5.1047 118.401 5.15712C118.406 5.18314 118.411 5.20906 118.416 5.23465C118.607 5.26016 120.055 5.25185 120.167 5.22041C120.154 5.18085 120.143 5.14104 120.131 5.10126C120.106 5.01696 120.081 4.9328 120.05 4.85138C119.838 4.30258 119.446 3.91041 118.944 3.61673C118.56 3.39128 118.144 3.24118 117.714 3.12726C116.994 2.93622 116.257 2.85019 115.515 2.80985C114.356 2.74637 113.198 2.76476 112.048 2.93919C111.528 3.0181 111.017 3.1332 110.524 3.31652C110.141 3.45832 109.776 3.63572 109.46 3.89914C109.282 4.04806 109.128 4.21774 109.027 4.42895C108.833 4.83655 108.865 5.22575 109.15 5.57876C109.251 5.70335 109.376 5.81311 109.505 5.90923C109.846 6.16256 110.237 6.31801 110.638 6.44794C111.58 6.75349 112.555 6.90003 113.535 7.01038C113.892 7.05037 114.25 7.08648 114.607 7.12259C114.934 7.15558 115.26 7.18859 115.587 7.22456C116.167 7.28864 116.742 7.38119 117.309 7.52418C117.66 7.61258 118.005 7.72115 118.322 7.90033C118.485 7.99229 118.633 8.10205 118.749 8.24978C118.968 8.52863 118.987 8.85316 118.803 9.15515C118.71 9.30762 118.586 9.43103 118.444 9.53723C118.21 9.71225 117.948 9.83269 117.673 9.92703C117.044 10.1442 116.389 10.2296 115.729 10.2729C114.901 10.3269 114.073 10.3233 113.248 10.2225C112.708 10.1566 112.177 10.0475 111.67 9.84634C111.279 9.69149 110.919 9.48977 110.622 9.18897C110.409 8.9736 110.251 8.72501 110.181 8.42717C110.174 8.39869 110.167 8.36963 110.16 8.34174H108.473V8.33996L108.471 8.34174ZM130.361 12.8953V13.5894L130.387 13.5922C130.392 13.5928 130.396 13.5933 130.401 13.5937C130.403 13.594 130.406 13.5942 130.408 13.5944C130.415 13.595 130.421 13.5954 130.427 13.5954C130.657 13.5952 130.887 13.5956 131.117 13.596C131.661 13.5969 132.205 13.5979 132.749 13.5912C133.22 13.5853 133.673 13.4844 134.102 13.2863C134.651 13.0329 135.1 12.6532 135.472 12.1851C135.882 11.6701 136.289 11.1528 136.678 10.623C138.089 8.70232 139.495 6.7789 140.901 4.85563L142.195 3.08633C142.218 3.05463 142.24 3.02192 142.267 2.9829L142.294 2.94215C142.273 2.94086 142.255 2.93941 142.238 2.93809C142.208 2.93577 142.184 2.93385 142.159 2.93385H141.698L141.42 2.93411C141.173 2.93447 140.926 2.93482 140.679 2.93266C140.604 2.93207 140.547 2.94571 140.512 3.01691C140.504 3.03339 140.492 3.04796 140.481 3.06247C140.476 3.06938 140.47 3.07628 140.465 3.08336L139.125 4.97186C138.047 6.49149 136.969 8.01125 135.89 9.5307C135.872 9.55561 135.854 9.58012 135.834 9.60669C135.82 9.62555 135.805 9.64593 135.789 9.66776C135.743 9.60783 135.708 9.56215 135.674 9.51587L135.12 8.77756L135.079 8.72245C133.661 6.83098 132.243 4.93969 130.827 3.04657C130.768 2.96767 130.71 2.93029 130.605 2.93147C130.201 2.93592 129.797 2.93537 129.393 2.93481C129.258 2.93463 129.124 2.93444 128.989 2.93444C128.961 2.93444 128.934 2.93589 128.899 2.93771C128.879 2.93874 128.857 2.93989 128.831 2.94097L134.929 10.7262C134.65 11.2815 134.062 12.0303 133.601 12.4058C133.469 12.5138 133.326 12.6111 133.178 12.6971C132.943 12.8336 132.69 12.9 132.414 12.8971C131.968 12.8925 131.522 12.8935 131.076 12.8945C130.888 12.8949 130.701 12.8953 130.513 12.8953H130.361ZM128.403 10.1044V10.8075C128.394 10.8083 128.386 10.8093 128.377 10.8103L128.368 10.8113C128.344 10.8142 128.32 10.817 128.297 10.817C128.053 10.817 127.809 10.8175 127.564 10.8179C126.994 10.8191 126.423 10.8202 125.853 10.8152C125.45 10.8116 125.048 10.7885 124.656 10.6799C124.432 10.6182 124.219 10.5334 124.028 10.3999C123.666 10.1465 123.479 9.80125 123.48 9.35806C123.481 8.01147 123.482 6.66489 123.482 5.31831V3.97746V3.80303C123.377 3.78808 123.276 3.78999 123.175 3.79187C123.132 3.79267 123.089 3.79348 123.046 3.79294C122.95 3.79136 122.853 3.79189 122.757 3.79241C122.708 3.79268 122.66 3.79294 122.612 3.79294H120.855V2.91783H123.48V0.672799H125.333V2.90834C125.463 2.91513 125.588 2.91433 125.71 2.91354C125.758 2.91323 125.807 2.91291 125.855 2.91308C125.967 2.91387 126.079 2.91361 126.19 2.91335L126.358 2.91308H128.4V3.78404C128.17 3.79536 127.941 3.79374 127.711 3.79211C127.603 3.79135 127.496 3.79059 127.388 3.79116C127.162 3.79274 126.936 3.79222 126.709 3.79169C126.596 3.79142 126.483 3.79116 126.37 3.79116H125.338V3.93771V4.81875C125.338 6.28716 125.338 7.75556 125.34 9.22397C125.34 9.33966 125.357 9.45714 125.384 9.56986C125.435 9.77989 125.572 9.92406 125.771 10.0095C125.932 10.0783 126.1 10.1038 126.274 10.1038H128.229H128.402L128.403 10.1044Z" fill="white"/>
</g>
<defs>
<clipPath id="clip0_3810_424">
<rect width="161" height="14" fill="white"/>
</clipPath>
</defs>
</svg>
