<svg width="138" height="32" viewBox="0 0 138 32" fill="none" xmlns="http://www.w3.org/2000/svg">
<g clip-path="url(#clip0_3810_439)">
<g clip-path="url(#clip1_3810_439)">
<path d="M5.45309 16.0002L9.23297 19.7436C9.32835 19.858 9.45175 20.1004 9.162 20.4079C9.1516 20.4189 9.14482 20.4285 9.13601 20.4388L5.15498 24.3812L7.69448 26.8958L11.7013 22.9281C12.0148 22.6385 12.2595 22.7609 12.375 22.8549L16.1576 26.6008L11.2395 31.4711C11.2395 31.4711 10.6447 32.0441 9.7806 31.9973L0.0111047 31.9899L0.0140426 22.3108C-0.0334205 21.4552 0.534781 20.8705 0.534781 20.8705L5.45309 16.0002ZM26.8615 16.0002L31.6378 20.7302L31.7798 20.8705C31.7798 20.8705 32.3581 21.4596 32.3109 22.3153L32.3034 31.9899L22.5294 31.987C21.6654 32.0338 21.075 31.4711 21.075 31.4711L16.1576 26.6008L19.937 22.8574C20.0525 22.7632 20.2973 22.641 20.6078 22.9274C20.6191 22.9382 20.6286 22.9447 20.6393 22.9536L24.6201 26.8958L27.1593 24.3809L23.1528 20.4133C23.1516 20.4122 23.1512 20.4113 23.1501 20.4101C22.8603 20.1028 22.9839 19.8604 23.0789 19.7458L26.8615 16.0002ZM88.6065 22.4162C90.2123 22.4162 91.141 23.1705 91.5239 24.485L91.53 24.5063H90.5875L90.5834 24.4955C90.2758 23.6777 89.6018 23.1895 88.6038 23.1895C87.4344 23.1895 86.2844 24.0618 86.2844 25.7288C86.2844 27.2344 87.2863 28.2859 88.7254 28.2859C89.4689 28.2859 90.1877 27.8924 90.4663 27.2857L91.4832 27.2778L91.4732 27.3011C90.9945 28.3857 90.0735 29.0597 88.7283 29.0597C87.7058 29.0597 86.9346 28.7143 86.2986 28.0612C85.7063 27.4524 85.3799 26.624 85.3799 25.7288C85.3799 24.857 85.697 24.0392 86.2733 23.4261C86.8935 22.7654 87.631 22.4162 88.6065 22.4162ZM136.216 24.5087C137.163 24.5087 137.89 25.0958 137.89 25.9575H137.086C137.086 25.4555 136.78 25.1717 136.207 25.1717C135.748 25.1717 135.403 25.3798 135.403 25.7684C135.403 26.2037 135.853 26.2702 136.656 26.5258C137.316 26.7342 137.957 26.9237 137.957 27.7382C137.957 28.5999 137.23 29.0263 136.254 29.0263C135.298 29.0263 134.456 28.5147 134.456 27.4732H135.269C135.269 28.1265 135.709 28.3727 136.293 28.3727C136.818 28.3727 137.163 28.1834 137.163 27.757C137.163 27.274 136.647 27.2266 135.776 26.9334C135.116 26.7248 134.6 26.5258 134.6 25.7494C134.6 24.9441 135.317 24.5087 136.216 24.5087ZM58.2678 24.5085C59.3961 24.5085 60.276 25.3514 60.276 26.4504C60.276 26.5732 60.276 26.7532 60.2378 26.9902H56.9477C56.9861 27.7192 57.34 28.3349 58.2963 28.3349C58.9465 28.3349 59.2623 28.0222 59.3961 27.6532H60.2378C60.0945 28.3821 59.3866 29.0263 58.2963 29.0263C56.8328 29.0263 56.1254 28.0128 56.1254 26.772C56.1254 25.4745 56.8997 24.5085 58.2678 24.5085ZM131.734 24.5085C132.863 24.5085 133.743 25.3514 133.743 26.4504C133.743 26.5732 133.743 26.7532 133.704 26.9902H130.414C130.452 27.7192 130.807 28.3349 131.763 28.3349C132.413 28.3349 132.729 28.0222 132.863 27.6532H133.704C133.561 28.3821 132.853 29.0263 131.763 29.0263C130.3 29.0263 129.592 28.0128 129.592 26.772C129.592 25.4745 130.367 24.5085 131.734 24.5085ZM62.7325 24.5087C63.6797 24.5087 64.4066 25.0958 64.4066 25.9575H63.6029C63.6029 25.4555 63.2969 25.1717 62.723 25.1717C62.2642 25.1717 61.92 25.3798 61.92 25.7684C61.92 26.2037 62.3691 26.2702 63.1728 26.5258C63.8328 26.7342 64.4735 26.9237 64.4735 27.7382C64.4735 28.5999 63.7466 29.0263 62.7712 29.0263C61.8144 29.0263 60.973 28.5147 60.973 27.4732H61.7857C61.7857 28.1265 62.226 28.3727 62.8093 28.3727C63.3351 28.3727 63.6797 28.1834 63.6797 27.757C63.6797 27.274 63.1633 27.2266 62.2929 26.9334C61.6329 26.7248 61.1165 26.5258 61.1165 25.7494C61.1165 24.9441 61.8339 24.5087 62.7325 24.5087ZM94.3316 24.5085C95.728 24.5085 96.6271 25.5504 96.6271 26.7722C96.6271 27.9844 95.728 29.0263 94.3316 29.0263C92.9543 29.0263 92.0555 27.9844 92.0555 26.7722C92.0555 25.5504 92.9543 24.5085 94.3316 24.5085ZM45.7816 24.5085C47.1782 24.5085 48.0772 25.5504 48.0772 26.7722C48.0772 27.9844 47.1782 29.0263 45.7816 29.0263C44.4045 29.0263 43.5056 27.9844 43.5056 26.7722C43.5056 25.5504 44.4045 24.5085 45.7816 24.5085ZM69.6418 24.5085C70.273 24.5085 70.8851 24.84 71.1624 25.3608V24.6222H71.9849V28.9222H71.1624V28.174C70.8851 28.6948 70.273 29.0261 69.6418 29.0261C68.3124 29.0261 67.4133 27.9844 67.4133 26.7722C67.4133 25.5504 68.3124 24.5085 69.6418 24.5085ZM113.088 24.6222V26.8953C113.088 27.691 113.375 28.2971 114.178 28.2971C115.02 28.2971 115.421 27.6057 115.421 26.8291V24.6222H116.254V28.9222H115.421V28.155C115.163 28.6758 114.618 29.0261 113.891 29.0261C113.288 29.0261 112.839 28.8179 112.581 28.4674C112.342 28.1456 112.256 27.757 112.256 27.1603V24.6222H113.088ZM82.4399 22.5942V28.9222H81.6174V28.174C81.3401 28.6948 80.728 29.0261 80.0968 29.0261C78.7674 29.0261 77.8683 27.9844 77.8683 26.772C77.8683 25.5502 78.7674 24.5087 80.0968 24.5087C80.728 24.5087 81.3401 24.84 81.6174 25.3608V22.5942H82.4399ZM125.605 23.173V24.6224H126.733V25.3136H125.605V27.293C125.605 28.1265 125.901 28.2306 126.322 28.2306C126.494 28.2306 126.762 28.2118 126.886 28.1928V28.9222C126.724 28.9504 126.418 28.9789 126.14 28.9789C125.605 28.9789 124.773 28.8844 124.773 27.473V25.3136H123.969V24.6224H124.773V23.173H125.605ZM119.633 24.5087C120.236 24.5087 120.676 24.7167 120.934 25.077C121.173 25.3986 121.269 25.7778 121.269 26.3839V28.9222H120.437V26.6395C120.437 25.844 120.15 25.2379 119.337 25.2379C118.505 25.2379 118.103 25.9385 118.103 26.7057V28.9222H117.271V24.6222H118.103V25.3798C118.361 24.8588 118.897 24.5087 119.633 24.5087ZM75.4653 24.5087C76.0678 24.5087 76.5081 24.7167 76.766 25.077C77.0051 25.3986 77.1007 25.7778 77.1007 26.3839V28.9222H76.2688V26.6395C76.2688 25.844 75.9817 25.2379 75.1687 25.2379C74.3368 25.2379 73.9352 25.9385 73.9352 26.7057V28.9222H73.103V24.6222H73.9352V25.3798C74.1933 24.8588 74.7291 24.5087 75.4653 24.5087ZM128.678 24.6222V28.9222H127.845V24.6222H128.678ZM123.106 24.6222V28.9222H122.274V24.6222H123.106ZM53.7514 24.5087C54.9085 24.5087 55.3007 25.257 55.3007 26.2039V28.9222H54.4685V26.4501C54.4685 25.6547 54.1433 25.2379 53.5502 25.2379C52.9094 25.2379 52.4888 25.7303 52.4888 26.7342V28.9222H51.6566V26.4976C51.6566 25.6263 51.3316 25.2379 50.7481 25.2379C50.1168 25.2379 49.677 25.7303 49.677 26.7342V28.9222H48.8448V24.6222H49.677V25.3892C49.8395 24.9156 50.3177 24.5087 50.9585 24.5087C51.762 24.5087 52.1923 24.8778 52.3548 25.4271C52.5368 24.9347 53.0722 24.5087 53.7514 24.5087ZM102.252 24.5087C103.409 24.5087 103.801 25.257 103.801 26.2039V28.9222H102.969V26.4501C102.969 25.6547 102.644 25.2379 102.051 25.2379C101.41 25.2379 100.989 25.7303 100.989 26.7342V28.9222H100.157V26.4976C100.157 25.6263 99.8324 25.2379 99.2488 25.2379C98.6176 25.2379 98.1778 25.7303 98.1778 26.7342V28.9222H97.3456V24.6222H98.1778V25.3892C98.34 24.9156 98.8185 24.5087 99.459 24.5087C100.263 24.5087 100.693 24.8778 100.856 25.4271C101.038 24.9347 101.573 24.5087 102.252 24.5087ZM109.717 24.5087C110.874 24.5087 111.266 25.257 111.266 26.2039V28.9222H110.434V26.4501C110.434 25.6547 110.109 25.2379 109.516 25.2379C108.875 25.2379 108.454 25.7303 108.454 26.7342V28.9222H107.622V26.4976C107.622 25.6263 107.297 25.2379 106.713 25.2379C106.082 25.2379 105.642 25.7303 105.642 26.7342V28.9222H104.81V24.6222H105.642V25.3892C105.805 24.9156 106.283 24.5087 106.924 24.5087C107.728 24.5087 108.158 24.8778 108.321 25.4271C108.502 24.9347 109.038 24.5087 109.717 24.5087ZM38.6868 22.3903V25.2026H41.8051V22.3903H42.6755V28.9222H41.8051V25.9792H38.6868V28.9222H37.8164V22.3903H38.6868ZM80.1442 25.2473C79.2646 25.2473 78.6907 25.9481 78.6907 26.772C78.6907 27.5963 79.2646 28.2877 80.1442 28.2877C81.0436 28.2877 81.6174 27.5963 81.6174 26.772C81.6174 25.9481 81.0436 25.2473 80.1442 25.2473ZM45.7816 25.2473C44.902 25.2473 44.3281 25.9481 44.3281 26.7722C44.3281 27.5961 44.902 28.2875 45.7816 28.2875C46.6807 28.2875 47.2546 27.5961 47.2546 26.7722C47.2546 25.9481 46.6807 25.2473 45.7816 25.2473ZM69.6895 25.2473C68.8096 25.2473 68.2357 25.9479 68.2357 26.7722C68.2357 27.5961 68.8096 28.2875 69.6895 28.2875C70.5886 28.2875 71.1624 27.5961 71.1624 26.7722C71.1624 25.9479 70.5886 25.2473 69.6895 25.2473ZM94.3316 25.2473C93.4516 25.2473 92.8777 25.9481 92.8777 26.7722C92.8777 27.5961 93.4516 28.2875 94.3316 28.2875C95.2307 28.2875 95.8046 27.5961 95.8046 26.7722C95.8046 25.9481 95.2307 25.2473 94.3316 25.2473ZM131.715 25.143C130.969 25.143 130.443 25.5882 130.424 26.3649H132.939C132.939 25.6166 132.413 25.143 131.715 25.143ZM58.2486 25.143C57.5023 25.143 56.9766 25.5882 56.9572 26.3649H59.4729C59.4729 25.6166 58.9465 25.143 58.2486 25.143ZM122.683 22.867C122.974 22.867 123.213 23.1155 123.213 23.4183C123.213 23.7133 122.974 23.9541 122.683 23.9541C122.399 23.9541 122.167 23.7133 122.167 23.4183C122.167 23.1155 122.399 22.867 122.683 22.867ZM128.254 22.867C128.545 22.867 128.784 23.1155 128.784 23.4183C128.784 23.7133 128.545 23.9541 128.254 23.9541C127.97 23.9541 127.739 23.7133 127.739 23.4183C127.739 23.1155 127.97 22.867 128.254 22.867ZM81.4237 7.1542C82.726 7.1542 83.8907 7.80977 84.3642 8.83352V7.42032H87.3835V16.6571C87.3643 18.5616 86.7127 19.8723 85.548 20.7121C84.6801 21.3468 83.5157 21.5921 82.1537 21.5921C80.792 21.5921 79.6468 21.3676 78.7194 20.7935C77.7523 20.1792 77.0612 19.1145 77.0219 18.0493H80.1011C80.2389 18.8275 80.8905 19.2982 82.1137 19.2982C83.5157 19.2982 84.3642 18.7662 84.3642 17.0049V15.694C83.8907 16.6773 82.6275 17.2917 81.3835 17.2917C78.5615 17.2917 76.8639 15.1618 76.8639 12.2535C76.8639 9.34584 78.6801 7.1542 81.4237 7.1542ZM111.643 2.54575C116.281 2.54575 119.024 6.04808 119.024 10.1234C119.024 14.1994 116.281 17.701 111.643 17.701C107.005 17.701 104.262 14.1994 104.262 10.1234C104.262 6.04808 107.005 2.54575 111.643 2.54575ZM132.02 7.1542C133.401 7.1542 134.487 7.82969 135 8.83352V7.42032H138V17.2919H135V15.8995C134.487 16.8825 133.303 17.558 131.98 17.558C129.138 17.558 127.5 15.3254 127.5 12.3558C127.5 9.4065 129.256 7.1542 132.02 7.1542ZM93.1071 7.1542C94.4878 7.1542 95.5741 7.82969 96.0869 8.83352V7.42032H99.087V17.2919H96.0869V15.8995C95.5741 16.8825 94.3895 17.558 93.0669 17.558C90.225 17.558 88.5875 15.3254 88.5875 12.3558C88.5875 9.4065 90.3432 7.1542 93.1071 7.1542ZM53.3477 7.14301C54.7286 7.14301 55.8146 7.81872 56.3277 8.82255V7.40958H59.3276V17.2811H56.3277V15.8881C55.8146 16.8716 54.6301 17.547 53.3077 17.547C50.4655 17.547 48.8281 15.3147 48.8281 12.3455C48.8281 9.39598 50.5842 7.14301 53.3477 7.14301ZM41.0134 2.95512V9.3248L45.5721 2.95512H49.3617L43.9339 10.0618L49.3617 17.2919H45.5529L41.0134 10.9634V17.2919H37.8162V2.95512H41.0134ZM72.1865 7.1542C74.4955 7.1542 75.6601 8.50584 75.6601 11.1888V17.2917H72.6207V12.2125C72.6207 10.5536 72.1673 9.79572 70.9434 9.79572C69.7392 9.79572 69.1077 10.6149 69.1077 12.1302V17.2917H66.0879V7.42032H69.1077V8.85344C69.6603 7.74822 70.7461 7.1542 72.1865 7.1542ZM64.2335 7.42032V17.2917H61.2336V7.42032H64.2335ZM125.945 7.25648C126.301 7.25648 126.499 7.27663 126.735 7.33795V10.2465C126.38 10.2058 126.202 10.1849 125.827 10.1849C124.347 10.1849 123.321 11.1064 123.321 13.4825V17.2917H120.301V7.42032H123.321V9.48887C123.657 8.01412 124.781 7.25648 125.945 7.25648ZM22.533 0.00271597L32.3025 0.0100972L32.2996 9.68896C32.3468 10.5448 31.7786 11.1292 31.7786 11.1292L26.8605 15.9998L23.0804 12.2564C22.9853 12.1418 22.8619 11.8994 23.1514 11.5919C23.162 11.5809 23.1688 11.5715 23.1776 11.5612L27.1584 7.61863L24.6192 5.10424L20.6124 9.07189C20.6112 9.07279 20.6103 9.07323 20.6092 9.07458C20.2989 9.36151 20.0541 9.23908 19.9386 9.14508L16.156 5.39901L12.3766 9.14239C12.2611 9.23662 12.0163 9.35905 11.7058 9.07211C11.6947 9.06181 11.685 9.0551 11.6746 9.04637L7.69358 5.10424L5.1543 7.61885L9.16087 11.5865C9.162 11.5878 9.16245 11.5887 9.16358 11.5899C9.45333 11.8972 9.3297 12.1396 9.23477 12.2539L5.45309 16.0002L0.534103 11.1292C0.534103 11.1292 -0.0444945 10.5404 0.00274258 9.68471L0.0101996 0.0100483L9.78421 0.0127827C10.6483 -0.0337718 11.2386 0.528693 11.2386 0.528693L11.3803 0.669253L16.156 5.39901L20.9324 0.669253L21.0743 0.528912C21.0743 0.528912 21.669 -0.0440624 22.533 0.00271597ZM132.849 9.7758C131.447 9.7758 130.579 10.8611 130.579 12.3558C130.579 13.8511 131.447 14.957 132.849 14.957C134.348 14.957 135.119 13.7896 135.119 12.3558C135.119 10.9428 134.348 9.7758 132.849 9.7758ZM93.9359 9.7758C92.5339 9.7758 91.666 10.8611 91.666 12.3558C91.666 13.8511 92.5339 14.957 93.9359 14.957C95.4353 14.957 96.2055 13.7896 96.2055 12.3558C96.2055 10.9428 95.4353 9.7758 93.9359 9.7758ZM54.1765 9.76439C52.7747 9.76439 51.9066 10.8501 51.9066 12.3455C51.9066 13.8401 52.7747 14.9463 54.1765 14.9463C55.6761 14.9463 56.4461 13.7786 56.4461 12.3455C56.4461 10.9318 55.6761 9.76439 54.1765 9.76439ZM82.2132 9.71425C80.8505 9.71425 79.9625 10.7996 79.9625 12.2949C79.9625 13.7896 80.8505 14.8749 82.2132 14.8749C83.6534 14.8749 84.502 13.728 84.502 12.2949C84.502 10.8611 83.6534 9.71425 82.2132 9.71425ZM111.643 5.51584C108.998 5.51584 107.577 7.62489 107.597 10.1234C107.577 12.6226 108.998 14.7318 111.643 14.7318C114.268 14.7318 115.689 12.6226 115.689 10.1234C115.689 7.62489 114.268 5.51584 111.643 5.51584ZM62.7345 2.73645C63.7471 2.73645 64.5677 3.55742 64.5677 4.57021C64.5677 5.58299 63.7471 6.40395 62.7348 6.40395C61.7222 6.40395 60.9013 5.58299 60.9013 4.57021C60.9013 3.55742 61.7222 2.73645 62.7345 2.73645ZM57.8811 3.71252V5.75041H51.1309V3.71252H57.8811Z" fill="white"/>
</g>
</g>
<defs>
<clipPath id="clip0_3810_439">
<rect width="138" height="32" fill="white"/>
</clipPath>
<clipPath id="clip1_3810_439">
<rect width="138" height="32" fill="white"/>
</clipPath>
</defs>
</svg>
